<svg xmlns="http://www.w3.org/2000/svg" xmlns:xlink="http://www.w3.org/1999/xlink" version="1.1" class="marks" width="676" height="359" viewBox="0 0 676 359"><rect width="676" height="359" fill="white"/><g fill="none" stroke-miterlimit="10" transform="translate(138,22)"><g class="mark-group role-frame root" role="graphics-object" aria-roledescription="group mark container"><g transform="translate(0,0)"><path class="background" aria-hidden="true" d="M0.5,0.5h400v300h-400Z" stroke="#ddd"/><g><g class="mark-group role-axis" role="graphics-symbol" aria-roledescription="axis" aria-label="X-axis titled 'date' for a time scale with values from Saturday, 01 January 2022, 12:00:00 AM to Saturday, 31 December 2022, 12:00:00 AM"><g transform="translate(0.5,300.5)"><path class="background" aria-hidden="true" d="M0,0h0v0h0Z" pointer-events="none"/><g><g class="mark-rule role-axis-tick" pointer-events="none"><line transform="translate(0,0)" x2="0" y2="5" stroke="#888" stroke-width="1" opacity="1"/><line transform="translate(34,0)" x2="0" y2="5" stroke="#888" stroke-width="1" opacity="1"/><line transform="translate(65,0)" x2="0" y2="5" stroke="#888" stroke-width="1" opacity="1"/><line transform="translate(99,0)" x2="0" y2="5" stroke="#888" stroke-width="1" opacity="1"/><line transform="translate(132,0)" x2="0" y2="5" stroke="#888" stroke-width="1" opacity="1"/><line transform="translate(166,0)" x2="0" y2="5" stroke="#888" stroke-width="1" opacity="1"/><line transform="translate(199,0)" x2="0" y2="5" stroke="#888" stroke-width="1" opacity="1"/><line transform="translate(233,0)" x2="0" y2="5" stroke="#888" stroke-width="1" opacity="1"/><line transform="translate(267,0)" x2="0" y2="5" stroke="#888" stroke-width="1" opacity="1"/><line transform="translate(300,0)" x2="0" y2="5" stroke="#888" stroke-width="1" opacity="1"/><line transform="translate(334,0)" x2="0" y2="5" stroke="#888" stroke-width="1" opacity="1"/><line transform="translate(367,0)" x2="0" y2="5" stroke="#888" stroke-width="1" opacity="1"/></g><g class="mark-text role-axis-label" pointer-events="none"><text text-anchor="start" transform="translate(0,15)" font-family="sans-serif" font-size="10px" fill="#000" opacity="1">2022</text><text text-anchor="middle" transform="translate(34.065934065934066,15)" font-family="sans-serif" font-size="10px" fill="#000" opacity="0">February</text><text text-anchor="middle" transform="translate(64.83516483516483,15)" font-family="sans-serif" font-size="10px" fill="#000" opacity="0">March</text><text text-anchor="middle" transform="translate(98.85531135531136,15)" font-family="sans-serif" font-size="10px" fill="#000" opacity="0">April</text><text text-anchor="middle" transform="translate(131.82234432234432,15)" font-family="sans-serif" font-size="10px" fill="#000" opacity="1">May</text><text text-anchor="middle" transform="translate(165.8882783882784,15)" font-family="sans-serif" font-size="10px" fill="#000" opacity="0">June</text><text text-anchor="middle" transform="translate(198.85531135531136,15)" font-family="sans-serif" font-size="10px" fill="#000" opacity="0">July</text><text text-anchor="middle" transform="translate(232.92124542124543,15)" font-family="sans-serif" font-size="10px" fill="#000" opacity="0">August</text><text text-anchor="middle" transform="translate(266.98717948717945,15)" font-family="sans-serif" font-size="10px" fill="#000" opacity="1">September</text><text text-anchor="middle" transform="translate(299.95421245421244,15)" font-family="sans-serif" font-size="10px" fill="#000" opacity="0">October</text><text text-anchor="middle" transform="translate(334.0201465201465,15)" font-family="sans-serif" font-size="10px" fill="#000" opacity="0">November</text><text text-anchor="middle" transform="translate(367.032967032967,15)" font-family="sans-serif" font-size="10px" fill="#000" opacity="0">December</text></g><g class="mark-rule role-axis-domain" pointer-events="none"><line transform="translate(0,0)" x2="400" y2="0" stroke="#888" stroke-width="1" opacity="1"/></g><g class="mark-text role-axis-title" pointer-events="none"><text text-anchor="middle" transform="translate(200,30)" font-family="sans-serif" font-size="11px" font-weight="bold" fill="#000" opacity="1">date</text></g></g><path class="foreground" aria-hidden="true" d="" pointer-events="none" display="none"/></g></g><g class="mark-group role-axis" role="graphics-symbol" aria-roledescription="axis" aria-label="Y-axis titled 'usage_pct' for a linear scale with values from 67 to 96"><g transform="translate(0.5,0.5)"><path class="background" aria-hidden="true" d="M0,0h0v0h0Z" pointer-events="none"/><g><g class="mark-rule role-axis-tick" pointer-events="none"><line transform="translate(0,269)" x2="-5" y2="0" stroke="#888" stroke-width="1" opacity="1"/><line transform="translate(0,217)" x2="-5" y2="0" stroke="#888" stroke-width="1" opacity="1"/><line transform="translate(0,166)" x2="-5" y2="0" stroke="#888" stroke-width="1" opacity="1"/><line transform="translate(0,114)" x2="-5" y2="0" stroke="#888" stroke-width="1" opacity="1"/><line transform="translate(0,62)" x2="-5" y2="0" stroke="#888" stroke-width="1" opacity="1"/><line transform="translate(0,10)" x2="-5" y2="0" stroke="#888" stroke-width="1" opacity="1"/></g><g class="mark-text role-axis-label" pointer-events="none"><text text-anchor="end" transform="translate(-7,271.9655172413793)" font-family="sans-serif" font-size="10px" fill="#000" opacity="1">70</text><text text-anchor="end" transform="translate(-7,220.24137931034483)" font-family="sans-serif" font-size="10px" fill="#000" opacity="1">75</text><text text-anchor="end" transform="translate(-7,168.51724137931035)" font-family="sans-serif" font-size="10px" fill="#000" opacity="1">80</text><text text-anchor="end" transform="translate(-7,116.79310344827586)" font-family="sans-serif" font-size="10px" fill="#000" opacity="1">85</text><text text-anchor="end" transform="translate(-7,65.06896551724137)" font-family="sans-serif" font-size="10px" fill="#000" opacity="1">90</text><text text-anchor="end" transform="translate(-7,13.344827586206884)" font-family="sans-serif" font-size="10px" fill="#000" opacity="1">95</text></g><g class="mark-rule role-axis-domain" pointer-events="none"><line transform="translate(0,300)" x2="0" y2="-300" stroke="#888" stroke-width="1" opacity="1"/></g><g class="mark-text role-axis-title" pointer-events="none"><text text-anchor="middle" transform="translate(-27,150) rotate(-90) translate(0,-2)" font-family="sans-serif" font-size="11px" font-weight="bold" fill="#000" opacity="1">usage_pct</text></g></g><path class="foreground" aria-hidden="true" d="" pointer-events="none" display="none"/></g></g><g class="mark-group role-scope pathgroup" role="graphics-object" aria-roledescription="group mark container"><g transform="translate(0,0)"><path class="background" aria-hidden="true" d="M0,0h400v300h-400Z"/><g><g class="mark-line role-mark marks" role="graphics-object" aria-roledescription="line mark container"><path aria-label="date: Mar 27, 2022; usage_pct: 92.3021812165; year: 2011" role="graphics-symbol" aria-roledescription="line mark" d="M93.36080586080587,38.25329776068705L101.05311355311355,77.72152107289413L108.74542124542124,125.58099882869259L116.43772893772895,158.01839303242573L124.13003663003663,101.65262660186374L131.82234432234432,117.51801338136897L139.514652014652,87.55657840408601L147.2069597069597,122.2649905746807L154.89926739926742,180.7805927708614L162.5915750915751,179.28035129594744L170.28388278388277,185.75001548767418L177.97619047619045,170.44674377348954L185.66849816849816,179.873715431385L193.36080586080587,130.74835017699635L201.05311355311355,125.42245013482041L208.74542124542126,129.06925829302023L216.43772893772893,101.630141767809L224.13003663003664,281.84911881255465L231.82234432234435,224.55338128285305L239.514652014652,183.14626119756576L247.2069597069597,126.50651247943618L254.8992673992674,204.92471601623595L262.59157509157507,221.98492609514804L270.2838827838828,141.16125160908342L277.9761904761905,179.63472698747762L285.66849816849816,131.8626478260699L293.36080586080584,267.7883027830767L301.0531135531136,201.70870008914824L308.74542124542126,148.307188693741L316.43772893772893,81.39826012077467L324.1300366300366,85.68779020528507L331.82234432234435,81.6142174887589L339.51465201465203,69.46814147302159L347.25274725274727,82.5919505458489L354.94505494505495,80.75531801660738L362.6373626373626,72.97195634894307L370.32967032967036,73.5027458580137L378.021978021978,60.96429490922078L385.7142857142857,83.36717422856L393.4065934065934,77.30920539769666" stroke="#E8E9EB" stroke-width="2"/></g></g><path class="foreground" aria-hidden="true" d="" display="none"/></g><g transform="translate(0,0)"><path class="background" aria-hidden="true" d="M0,0h400v300h-400Z"/><g><g class="mark-line role-mark marks" role="graphics-object" aria-roledescription="line mark container"><path aria-label="date: Jan 01, 2022; usage_pct: 83.7157123431; year: 2012" role="graphics-symbol" aria-roledescription="line mark" d="M0,127.0788378298992L7.6923076923076925,135.46684202987683L15.384615384615385,83.51576591819796L23.076923076923077,60.79579366442691L30.76923076923077,77.00822613816516L38.46153846153847,74.7750386967426L46.15384615384615,84.64655053993339L53.84615384615385,86.81120555508666L61.53846153846154,117.11982055498261L68.13186813186813,71.89184938759851L75.82417582417582,88.90119434616463L83.47069597069597,81.88159987842324L91.16300366300366,82.32308929959063L98.85531135531136,117.33497283119843L106.54761904761905,89.95772732281354L114.23992673992673,113.80612458775082L121.93223443223444,90.08724270825998L129.62454212454213,97.49442520440337L137.3168498168498,143.49183348920104L145.00915750915752,118.64152878024228L152.7014652014652,116.6497072804289L160.3937728937729,131.378256840062L168.08608058608058,132.68934352885444L175.77838827838826,142.46477996757244L183.47069597069597,185.3780768952023L191.16300366300368,157.20028274427966L198.85531135531136,180.9466699660215L206.54761904761907,192.1506204410402L214.23992673992674,140.92673424328416L221.93223443223445,139.73635258216677L229.6245421245421,123.3620233929891L237.3168498168498,94.89717812299105L245.00915750915752,164.75050224768745L252.7014652014652,172.99991516687246L260.3937728937729,81.25853983234212L268.0860805860806,93.61999637919892L275.77838827838826,100.17126587854574L283.470695970696,51.96431591489827L291.1630036630037,103.749656168526L298.85531135531136,106.58953049807022L306.5476190476191,44.81144149963252L314.2399267399267,94.27058269908939L321.93223443223445,70.01607085944906L329.62454212454213,99.59155893369413L337.3168498168498,88.3612916952373L345.05494505494505,76.48365937482346L352.74725274725273,85.01502544510163L360.43956043956047,60.96216187648984L368.1318681318681,21.992894234752903L375.8241758241758,79.85172594825255L383.5164835164835,75.37546520648596L391.2087912087912,58.482288512599446L398.9010989010989,60.90910501456829" stroke="#E8E9EB" stroke-width="2"/></g></g><path class="foreground" aria-hidden="true" d="" display="none"/></g><g transform="translate(0,0)"><path class="background" aria-hidden="true" d="M0,0h400v300h-400Z"/><g><g class="mark-line role-mark marks" role="graphics-object" aria-roledescription="line mark container"><path aria-label="date: Jan 06, 2022; usage_pct: 83.2657397674; year: 2013" role="graphics-symbol" aria-roledescription="line mark" d="M5.4945054945054945,131.73372654457611L13.186813186813188,75.22378722613584L20.87912087912088,45.70261829561275L28.57142857142857,65.2764860259164L36.26373626373626,117.66388009645439L43.956043956043956,101.7460441265505L51.64835164835166,66.24172085561011L59.34065934065934,58.01948629872835L67.03296703296702,89.77285109969544L74.72527472527473,129.84000741431373L82.37179487179486,124.25891377396529L90.06410256410257,151.70545583095682L97.75641025641025,90.87143671660883L105.44871794871796,99.00477763393809L113.14102564102564,111.28431844406002L120.83333333333333,99.9466314758155L128.52564102564102,147.6805460345589L136.21794871794873,131.36444378316887L143.9102564102564,122.31158557903662L151.6025641025641,105.46980833164568L159.2948717948718,112.82795586533067L166.9871794871795,123.17677464055797L174.67948717948718,122.06754587347048L182.37179487179486,97.3252285110278L190.06410256410254,110.36601396746792L197.75641025641028,152.93421260025596L205.44871794871793,147.38294553125516L213.14102564102564,72.50831696947186L220.83333333333334,168.3225523200746L228.52564102564102,126.05451084936155L236.21794871794873,103.39584644951688L243.91025641025644,57.306908779021626L251.6025641025641,94.70899600059917L259.2948717948718,101.21738892642146L266.98717948717945,114.81319858769702L274.6794871794872,108.02342922048061L282.3717948717949,112.60690813114815L290.06410256410254,154.1540924056064L297.7564102564103,157.47704803838883L305.44871794871796,121.08519343421673L313.14102564102564,62.78901575958101L320.83333333333337,87.15021552862544L328.525641025641,91.5091486938452L336.21794871794873,87.76739139778162L343.95604395604397,82.59132549872841L351.64835164835165,77.96884836456462L359.34065934065933,84.0938942895172L367.032967032967,75.53150273223473L374.72527472527474,114.63956741321437L382.4175824175824,91.25165725908684L390.1098901098901,85.06411019318149L397.80219780219784,110.04297633715544" stroke="#E8E9EB" stroke-width="2"/></g></g><path class="foreground" aria-hidden="true" d="" display="none"/></g><g transform="translate(0,0)"><path class="background" aria-hidden="true" d="M0,0h400v300h-400Z"/><g><g class="mark-line role-mark marks" role="graphics-object" aria-roledescription="line mark container"><path aria-label="date: Jan 05, 2022; usage_pct: 78.3639920726; year: 2014" role="graphics-symbol" aria-roledescription="line mark" d="M4.395604395604396,182.44146131778993L12.087912087912088,84.23200924688392L19.78021978021978,73.45933060618229L27.472527472527474,131.53810833194694L35.16483516483517,154.93806659155405L42.857142857142854,85.127908358312L50.54945054945055,87.09819959005793L58.24175824175825,113.29099522884998L65.93406593406593,145.91302349956683L73.62637362637363,110.04740826378853L81.27289377289377,135.69338375637537L88.96520146520146,144.82554371918042L96.65750915750915,179.74420824113832L104.34981684981686,146.5537493445172L112.04212454212454,134.36333247726077L119.73443223443223,103.32772958111518L127.42673992673991,131.7135751518549L135.11904761904762,128.94383899844811L142.81135531135533,167.6719303533959L150.503663003663,119.81274103616697L158.1959706959707,129.9993247311885L165.8882783882784,89.62559939357826L173.58058608058607,110.37512959407101L181.27289377289378,158.54260393115794L188.96520146520146,143.4774035309538L196.65750915750914,142.19971214075267L204.34981684981685,164.83353289342486L212.04212454212455,143.9306372252902L219.73443223443226,138.38177249059737L227.4267399267399,99.05562946930566L235.11904761904762,112.16697899645938L242.8113553113553,113.23137474957564L250.503663003663,200.93612212095834L258.1959706959707,112.15288637196018L265.88827838827837,216.1370542885878L273.5805860805861,167.23849917339584L281.2728937728938,150.6975142086148L288.96520146520146,175.31191382544753L296.6575091575092,127.69723368401002L304.3498168498168,109.88395093261859L312.04212454212455,164.9261635459734L319.73443223443223,164.92309309249467L327.4267399267399,118.87217350089647L335.11904761904765,124.10712351173613L342.85714285714283,102.92013728276142L350.54945054945057,114.14631916929515L358.24175824175825,101.78804273145654L365.9340659340659,133.32971944276548L373.6263736263736,133.8198914405397L381.31868131868134,126.09073746743049L389.010989010989,88.04619508702864L396.7032967032967,131.15128622954435" stroke="#E8E9EB" stroke-width="2"/></g></g><path class="foreground" aria-hidden="true" d="" display="none"/></g><g transform="translate(0,0)"><path class="background" aria-hidden="true" d="M0,0h400v300h-400Z"/><g><g class="mark-line role-mark marks" role="graphics-object" aria-roledescription="line mark container"><path aria-label="date: Jan 04, 2022; usage_pct: 80.9383067334; year: 2015" role="graphics-symbol" aria-roledescription="line mark" d="M3.296703296703297,155.81061999889891L10.989010989010989,149.32405432217107L18.681318681318682,141.94033555449192L26.373626373626376,140.72390047256513L34.065934065934066,151.16997294496247L41.75824175824176,137.45699555597957L49.45054945054945,134.52627239267758L57.14285714285714,136.1916160812021L64.83516483516483,168.55467015874737L72.52747252747253,164.1240995923064L80.17399267399267,141.57231927890476L87.86630036630036,157.5305368793365L95.55860805860806,167.29510724243997L103.25091575091577,165.09408509027918L110.94322344322345,107.46826377205018L118.63553113553114,131.81361793314798L126.32783882783882,155.80995962570233L134.0201465201465,162.93875046423813L141.71245421245422,155.4174153758473L149.4047619047619,134.7713838994465L157.0970695970696,153.1809504365761L164.78937728937728,135.87849055731604L172.481684981685,172.81435812555918L180.17399267399267,172.8541658783682L187.86630036630038,164.44428945949795L195.55860805860806,157.1927258996923L203.25091575091574,208.23817833735558L210.94322344322345,170.76565162247817L218.63553113553112,115.99296795339123L226.32783882783883,122.77520857255273L234.02014652014654,96.9917216694719L241.7124542124542,90.14165278788205L249.4047619047619,160.8836314783168L257.0970695970696,174.89162324743037L264.7893772893773,218.76745265250258L272.48168498168496,126.8569593815395L280.17399267399264,122.61243106175542L287.8663003663004,142.55195477641183L295.55860805860806,134.68259045661512L303.25091575091574,134.65531959651187L310.9432234432235,130.7831439725913L318.6355311355311,111.53733336322867L326.32783882783883,93.31550211975932L334.0201465201465,95.31982006911417L341.75824175824175,100.75300031322942L349.45054945054943,72.42828007716314L357.14285714285717,133.562563299154L364.83516483516485,101.24990480156563L372.5274725274725,126.20720338870917L380.2197802197802,117.00033577309014L387.9120879120879,98.16582773900299L395.6043956043956,108.103177150419" stroke="#E8E9EB" stroke-width="2"/></g></g><path class="foreground" aria-hidden="true" d="" display="none"/></g><g transform="translate(0,0)"><path class="background" aria-hidden="true" d="M0,0h400v300h-400Z"/><g><g class="mark-line role-mark marks" role="graphics-object" aria-roledescription="line mark container"><path aria-label="date: Jan 03, 2022; usage_pct: 86.9269361633; year: 2016" role="graphics-symbol" aria-roledescription="line mark" d="M2.197802197802198,93.85928106931154L9.89010989010989,88.0598340073523L17.582417582417584,57.940574173721615L25.274725274725274,77.34141261328166L32.967032967032964,91.75163695099904L40.65934065934066,99.15144459055895L48.35164835164835,106.21449886647162L56.043956043956044,86.56654853205407L63.73626373626373,65.1261601965689L70.32967032967034,80.51724147642996L78.02197802197803,73.70334633619622L85.66849816849816,113.4805653584293L93.36080586080587,106.59052107873781L101.05311355311355,103.86638807096531L108.74542124542124,82.78855492823313L116.43772893772895,103.63006062155952L124.13003663003663,115.1312213678481L131.82234432234432,120.75543865900354L139.514652014652,93.84917338954604L147.2069597069597,115.62009023843675L154.89926739926742,144.46279825768178L162.5915750915751,128.43699178233686L170.28388278388277,134.1321096399986L177.97619047619045,93.11854764047276L185.66849816849816,135.18095250390738L193.36080586080587,113.92270132311813L201.05311355311355,119.51079447056969L208.74542124542126,157.36730631907608L216.43772893772893,113.06117259454653L224.13003663003664,142.00086018202467L231.82234432234435,129.52144569178145L239.514652014652,107.56102677843312L247.2069597069597,134.84616867427914L254.8992673992674,124.13470152652341L262.59157509157507,128.37246844929192L270.2838827838828,128.3229179235423L277.9761904761905,89.26989737843837L285.66849816849816,109.9226672139371L293.36080586080584,122.66204682386442L301.0531135531136,115.76339463181849L308.74542124542126,97.74578964044515L316.43772893772893,95.49871651346756L324.1300366300366,82.00230172755678L331.82234432234435,70.5022707276062L339.51465201465203,78.20799414347017L347.25274725274727,59.8383002230665L354.94505494505495,84.2331660693097L362.6373626373626,64.10663646515941L370.32967032967036,82.77409539695724L378.021978021978,108.36461002510025L385.7142857142857,64.87270507369882L393.4065934065934,108.6291139747357" stroke="#E8E9EB" stroke-width="2"/></g></g><path class="foreground" aria-hidden="true" d="" display="none"/></g><g transform="translate(0,0)"><path class="background" aria-hidden="true" d="M0,0h400v300h-400Z"/><g><g class="mark-line role-mark marks" role="graphics-object" aria-roledescription="line mark container"><path aria-label="date: Jan 01, 2022; usage_pct: 88.310608957; year: 2017" role="graphics-symbol" aria-roledescription="line mark" d="M0,79.54542458287006L7.6923076923076925,102.37745380242407L15.384615384615385,77.1095889232415L23.076923076923077,67.99556308155692L30.76923076923077,67.48803130116224L38.46153846153847,72.62711811250878L46.15384615384615,51.85998680427607L53.84615384615385,92.23962646505342L61.53846153846154,96.86277907544623L69.23076923076923,76.57003104065568L76.92307692307693,59.77146818721768L84.56959706959707,62.16698343081194L92.26190476190477,70.60009868224033L99.95421245421245,81.190030598971L107.64652014652015,109.82419117315409L115.33882783882783,96.3997377607909L123.03113553113553,125.16856583776367L130.7234432234432,110.0476097774259L138.41575091575092,110.80742343840117L146.1080586080586,133.76630220442266L153.8003663003663,133.88364697148572L161.49267399267399,130.59881955990994L169.1849816849817,136.6527235124289L176.87728937728937,91.85850852874825L184.56959706959708,141.93099474787576L192.26190476190476,105.70912388440294L199.95421245421247,96.48733586482453L207.64652014652017,107.72432462873525L215.33882783882783,100.30190003468917L223.03113553113553,125.1742994804846L230.7234432234432,126.97650410733749L238.41575091575092,106.13721205304707L246.10805860805863,123.748070778747L253.80036630036628,147.66808973097335L261.492673992674,82.01580924372243L269.1849816849817,103.50449249297269L276.87728937728934,124.68182948056577L284.5695970695971,94.03374182177286L292.26190476190476,126.80308857878352L299.95421245421244,115.24268553948825L307.6465201465202,95.5118534587715L315.33882783882785,75.34135679973956L323.03113553113553,75.80639766629179L330.7234432234432,88.49353101326565L338.4157509157509,113.65240370116625L346.1538461538462,80.9289624338272L353.8461538461538,75.21801042526096L361.53846153846155,66.96978742819213L369.2307692307692,80.20732300314634L376.9230769230769,64.8033171823389L384.61538461538464,50.175647834301174L392.30769230769226,69.51162503561898L400,84.089554590301" stroke="#E8E9EB" stroke-width="2"/></g></g><path class="foreground" aria-hidden="true" d="" display="none"/></g><g transform="translate(0,0)"><path class="background" aria-hidden="true" d="M0,0h400v300h-400Z"/><g><g class="mark-line role-mark marks" role="graphics-object" aria-roledescription="line mark container"><path aria-label="date: Jan 07, 2022; usage_pct: 86.3426321664; year: 2018" role="graphics-symbol" aria-roledescription="line mark" d="M6.593406593406594,99.9038051754337L14.285714285714285,62.658033911060244L21.978021978021978,86.70462527101164L29.67032967032967,14.85231503468728L37.362637362637365,72.0155842034115L45.05494505494506,63.20134862758401L52.74725274725275,109.52681077524598L60.43956043956044,121.65602502324234L68.13186813186813,193.28780504469063L75.82417582417582,128.71711642609006L83.47069597069597,171.10819832700216L91.16300366300366,123.68334505363305L98.85531135531136,148.04421186431145L106.54761904761905,123.32463884864555L114.23992673992673,111.38924888507233L121.93223443223444,119.54568867267618L129.62454212454213,130.89359423104167L137.3168498168498,146.10578816677227L145.00915750915752,106.22668993764505L152.7014652014652,127.57472992130955L160.3937728937729,131.37725171319042L168.08608058608058,113.67029565483585L175.77838827838826,124.98640712332728L183.47069597069597,134.63572697407105L191.16300366300368,138.76251804579678L198.85531135531136,116.03810820522234L206.54761904761907,102.2271235186356L214.23992673992674,106.12360804540029L221.93223443223445,62.07088894096906L229.6245421245421,112.00683670037371L237.3168498168498,84.27886976773684L245.00915750915752,120.30337828917588L252.7014652014652,171.3371033924992L260.3937728937729,71.46154237834614L268.0860805860806,100.269737400718L275.77838827838826,119.05848314119568L283.470695970696,135.27252975346832L291.1630036630037,133.75242271055353L298.85531135531136,137.31215033513055L306.5476190476191,120.76296928652974L314.2399267399267,86.79777699067844L321.93223443223445,91.0692012931038L329.62454212454213,94.79877838191153L337.3168498168498,118.98036439019263L345.05494505494505,112.80208858564707L352.74725274725273,125.2019069951726L360.43956043956047,107.30628507316565L368.1318681318681,116.70354419143464L375.8241758241758,102.17087867347814L383.5164835164835,41.59585504093833L391.2087912087912,98.7990616056856L398.9010989010989,103.9756648354825" stroke="#E8E9EB" stroke-width="2"/></g></g><path class="foreground" aria-hidden="true" d="" display="none"/></g><g transform="translate(0,0)"><path class="background" aria-hidden="true" d="M0,0h400v300h-400Z"/><g><g class="mark-line role-mark marks" role="graphics-object" aria-roledescription="line mark container"><path aria-label="date: Jan 06, 2022; usage_pct: 84.8439796934; year: 2019" role="graphics-symbol" aria-roledescription="line mark" d="M5.4945054945054945,115.40710662029726L13.186813186813188,96.3581464675707L20.87912087912088,98.4145094694599L28.57142857142857,94.32229320759322L36.26373626373626,117.4296985829955L43.956043956043956,131.29626220254883L51.64835164835166,124.82372557348972L59.34065934065934,137.96467545309991L67.03296703296702,106.8651806405625L74.72527472527473,90.14830173712693L82.37179487179486,94.71819482441099L90.06410256410257,104.82912583444278L97.75641025641025,91.78080782859914L105.44871794871796,101.69949252189245L113.14102564102564,65.26781142740545L120.83333333333333,110.92180718583884L128.52564102564102,125.76990375456674L136.21794871794873,120.65793647197425L143.9102564102564,140.7342133647309L151.6025641025641,146.04817299212303L159.2948717948718,163.64568588155L166.9871794871795,155.96502575706006L174.67948717948718,148.53041611807387L182.37179487179486,138.963086903282L190.06410256410254,147.8483396379574L197.75641025641028,162.05493492804564L205.44871794871793,135.16995347539898L213.14102564102564,158.46725174911884L220.83333333333334,128.0471914417489L228.52564102564102,125.18838048969084L236.21794871794873,91.41756166527169L243.91025641025644,85.10524187922813L251.6025641025641,156.92388958844538L259.2948717948718,139.7730707537731L266.98717948717945,133.14870277921116L274.6794871794872,110.14557943765026L282.3717948717949,98.64142158070472L290.06410256410254,153.31071804339695L297.7564102564103,149.38442127052184L305.44871794871796,109.7725177596011L313.14102564102564,130.03223038066096L320.83333333333337,102.93697422767879L328.525641025641,98.12961395469935L336.21794871794873,116.81274125571858L343.95604395604397,122.52536520155878L351.64835164835165,105.51411807266165L359.34065934065933,117.07984289673486L367.032967032967,82.79854254616941L374.72527472527474,125.79604914211978L382.4175824175824,116.08470487314489L390.1098901098901,140.51455011104647L397.80219780219784,142.89860007970097" stroke="#E8E9EB" stroke-width="2"/></g></g><path class="foreground" aria-hidden="true" d="" display="none"/></g><g transform="translate(0,0)"><path class="background" aria-hidden="true" d="M0,0h400v300h-400Z"/><g><g class="mark-line role-mark marks" role="graphics-object" aria-roledescription="line mark container"><path aria-label="date: Jan 05, 2022; usage_pct: 83.0488181789; year: 2020" role="graphics-symbol" aria-roledescription="line mark" d="M4.395604395604396,133.97774297687914L12.087912087912088,138.48454570208455L19.78021978021978,137.6155739949625L27.472527472527474,148.538398362795L35.16483516483517,152.30286194032573L42.857142857142854,131.9308001032106L50.54945054945055,162.1909606030088L58.24175824175825,156.64116883907454L64.83516483516483,130.02246506238322L72.52747252747253,120.64049013270206L80.17399267399267,149.092626925436L87.86630036630036,202.68407114794022L95.55860805860806,152.66867255275653L103.25091575091577,155.156795674463L110.94322344322345,151.5286805173286L118.63553113553114,128.5900238592365L126.32783882783882,135.00481564101432L134.0201465201465,206.54599755609405L141.71245421245422,252.08491713212536L149.4047619047619,177.22203750083864L157.0970695970696,163.44614170745032L164.78937728937728,189.3457976618724L172.481684981685,152.16309707059867L180.17399267399267,144.75828155306252L187.86630036630038,192.5477657003235L195.55860805860806,190.08098491429158L203.25091575091574,167.20945071397057L210.94322344322345,117.79747035653509L218.63553113553112,186.29878327640466L226.32783882783883,138.06589325419228L234.02014652014654,171.0830441282166L241.7124542124542,141.24669148248762L249.4047619047619,147.9336656348543L257.0970695970696,102.4553906880655L264.7893772893773,122.55665704385842L272.48168498168496,119.20079627473481L280.17399267399264,115.25840760366025L287.8663003663004,178.573472723192L295.55860805860806,166.29282251642834L303.25091575091574,164.91064391287188L310.9432234432235,132.57727921267158L318.6355311355311,134.4569497881753L326.32783882783883,113.78502157544868L334.0201465201465,119.03742771423512L341.75824175824175,111.23360945664402L349.45054945054943,122.6202409109928L357.14285714285717,155.28634962453373L364.83516483516485,108.69770496559447L372.5274725274725,94.01783866816477L380.2197802197802,146.88240247974724L387.9120879120879,51.095071225608216L395.6043956043956,104.77787071410718" stroke="#E8E9EB" stroke-width="2"/></g></g><path class="foreground" aria-hidden="true" d="" display="none"/></g><g transform="translate(0,0)"><path class="background" aria-hidden="true" d="M0,0h400v300h-400Z"/><g><g class="mark-line role-mark marks" role="graphics-object" aria-roledescription="line mark container"><path aria-label="date: Jan 03, 2022; usage_pct: 88.6628280657; year: 2021" role="graphics-symbol" aria-roledescription="line mark" d="M2.197802197802198,75.9017786311898L9.89010989010989,102.90752303020176L17.582417582417584,100.0649076200251L25.274725274725274,114.60744340866043L32.967032967032964,131.80890293575297L40.65934065934066,161.37211415373702L48.35164835164835,181.90738099251934L56.043956043956044,147.52005864676389L63.73626373626373,173.72463781440877L71.42857142857143,172.20938308227107L79.07509157509158,158.7092141434904L86.76739926739927,205.27899939588627L94.45970695970696,204.86891481533252L102.15201465201464,197.8225906279374L109.84432234432235,99.92550146365689L117.53663003663004,67.23026084438551L125.22893772893772,97.785318995214L132.9212454212454,140.34107577298002L140.6135531135531,113.1263497382587L148.30586080586082,104.43273886903816L155.9981684981685,89.45015335706132L163.69047619047618,104.49915633235591L171.38278388278388,92.72474053979197L179.0750915750916,95.33697611507087L186.76739926739927,119.73458221764709L194.45970695970695,106.75800650438242L202.15201465201466,113.6934623009649L209.84432234432236,86.18546554281646L217.53663003663002,89.46993081282984L225.22893772893772,88.17839627337035L232.92124542124543,103.6998896771746L240.6135531135531,67.12037027975029L248.30586080586082,163.81304954783727L255.99816849816847,105.15620636764635L263.6904761904762,72.613854140715L271.3827838827839,115.9389248591147L279.07509157509156,137.44346227834967L286.76739926739924,105.18800047406775L294.459706959707,104.19101995039873L302.15201465201466,109.11021945186715L309.84432234432234,86.3189270857148L317.53663003663,112.1750820608775L325.22893772893775,96.97728127898729L332.92124542124543,109.64584315742476L340.65934065934067,107.39321453362741L348.35164835164835,96.22963466179544L356.04395604395603,70.12313578251145L363.7362637362637,35.65921610527264L371.42857142857144,82.20978167309312L379.1208791208791,73.23023311835784L386.8131868131868,87.90926679492563L394.50549450549454,116.78755219019988" stroke="#ffbfbf" stroke-width="2"/></g></g><path class="foreground" aria-hidden="true" d="" display="none"/></g><g transform="translate(0,0)"><path class="background" aria-hidden="true" d="M0,0h400v300h-400Z"/><g><g class="mark-line role-mark marks" role="graphics-object" aria-roledescription="line mark container"><path aria-label="date: Jan 02, 2022; usage_pct: 85.3440423296; year: 2022" role="graphics-symbol" aria-roledescription="line mark" d="M1.098901098901099,110.23404486581127L8.791208791208792,90.6389675608512L16.483516483516482,85.06207293102712L24.175824175824175,71.85311506080158L31.868131868131865,120.95597149468627L39.56043956043956,111.08384397438839L47.25274725274725,122.13864962195808L54.94505494505495,118.52327143446419L62.637362637362635,121.82013564600803L70.32967032967034,153.22179192489344L78.02197802197803,137.296621585383L85.66849816849816,137.7530286914555L93.36080586080587,93.58682034744939L101.05311355311355,132.02277787604928L108.74542124542124,151.15292841227068L116.43772893772895,151.1439254151361L124.13003663003663,150.398972384107L131.82234432234432,137.9195723161183L139.514652014652,156.89450987215392L147.2069597069597,139.3750737464424L154.89926739926742,111.53033475684768L162.5915750915751,119.10373004103029L170.28388278388277,135.81103328802408L177.97619047619045,122.58815331634369L185.66849816849816,135.51151982252188L193.36080586080587,73.25878061490234L201.05311355311355,25.89617317238302" stroke="#b30000" stroke-width="2"/></g></g><path class="foreground" aria-hidden="true" d="" display="none"/></g></g><g class="mark-group role-legend" role="graphics-symbol" aria-roledescription="legend" aria-label="Symbol legend titled 'year' for stroke color with 12 values: 2011, 2012, 2013, 2014, 2015, ending with 2022"><g transform="translate(420,0)"><path class="background" aria-hidden="true" d="M0,0h48v170h-48Z" pointer-events="none"/><g><g class="mark-group role-legend-entry"><g transform="translate(0,16)"><path class="background" aria-hidden="true" d="M0,0h0v0h0Z" pointer-events="none"/><g><g class="mark-group role-scope" role="graphics-object" aria-roledescription="group mark container"><g transform="translate(0,0)"><path class="background" aria-hidden="true" d="M0,0h48v11h-48Z" pointer-events="none" opacity="1"/><g><g class="mark-symbol role-legend-symbol" pointer-events="none"><path transform="translate(6,6)" d="M-5,0L5,0" stroke="#E8E9EB" stroke-width="1.5" opacity="1"/></g><g class="mark-text role-legend-label" pointer-events="none"><text text-anchor="start" transform="translate(16,9)" font-family="sans-serif" font-size="10px" fill="#000" opacity="1">2011</text></g></g><path class="foreground" aria-hidden="true" d="" pointer-events="none" display="none"/></g><g transform="translate(0,13)"><path class="background" aria-hidden="true" d="M0,0h48v11h-48Z" pointer-events="none" opacity="1"/><g><g class="mark-symbol role-legend-symbol" pointer-events="none"><path transform="translate(6,6)" d="M-5,0L5,0" stroke="#E8E9EB" stroke-width="1.5" opacity="1"/></g><g class="mark-text role-legend-label" pointer-events="none"><text text-anchor="start" transform="translate(16,9)" font-family="sans-serif" font-size="10px" fill="#000" opacity="1">2012</text></g></g><path class="foreground" aria-hidden="true" d="" pointer-events="none" display="none"/></g><g transform="translate(0,26)"><path class="background" aria-hidden="true" d="M0,0h48v11h-48Z" pointer-events="none" opacity="1"/><g><g class="mark-symbol role-legend-symbol" pointer-events="none"><path transform="translate(6,6)" d="M-5,0L5,0" stroke="#E8E9EB" stroke-width="1.5" opacity="1"/></g><g class="mark-text role-legend-label" pointer-events="none"><text text-anchor="start" transform="translate(16,9)" font-family="sans-serif" font-size="10px" fill="#000" opacity="1">2013</text></g></g><path class="foreground" aria-hidden="true" d="" pointer-events="none" display="none"/></g><g transform="translate(0,39)"><path class="background" aria-hidden="true" d="M0,0h48v11h-48Z" pointer-events="none" opacity="1"/><g><g class="mark-symbol role-legend-symbol" pointer-events="none"><path transform="translate(6,6)" d="M-5,0L5,0" stroke="#E8E9EB" stroke-width="1.5" opacity="1"/></g><g class="mark-text role-legend-label" pointer-events="none"><text text-anchor="start" transform="translate(16,9)" font-family="sans-serif" font-size="10px" fill="#000" opacity="1">2014</text></g></g><path class="foreground" aria-hidden="true" d="" pointer-events="none" display="none"/></g><g transform="translate(0,52)"><path class="background" aria-hidden="true" d="M0,0h48v11h-48Z" pointer-events="none" opacity="1"/><g><g class="mark-symbol role-legend-symbol" pointer-events="none"><path transform="translate(6,6)" d="M-5,0L5,0" stroke="#E8E9EB" stroke-width="1.5" opacity="1"/></g><g class="mark-text role-legend-label" pointer-events="none"><text text-anchor="start" transform="translate(16,9)" font-family="sans-serif" font-size="10px" fill="#000" opacity="1">2015</text></g></g><path class="foreground" aria-hidden="true" d="" pointer-events="none" display="none"/></g><g transform="translate(0,65)"><path class="background" aria-hidden="true" d="M0,0h48v11h-48Z" pointer-events="none" opacity="1"/><g><g class="mark-symbol role-legend-symbol" pointer-events="none"><path transform="translate(6,6)" d="M-5,0L5,0" stroke="#E8E9EB" stroke-width="1.5" opacity="1"/></g><g class="mark-text role-legend-label" pointer-events="none"><text text-anchor="start" transform="translate(16,9)" font-family="sans-serif" font-size="10px" fill="#000" opacity="1">2016</text></g></g><path class="foreground" aria-hidden="true" d="" pointer-events="none" display="none"/></g><g transform="translate(0,78)"><path class="background" aria-hidden="true" d="M0,0h48v11h-48Z" pointer-events="none" opacity="1"/><g><g class="mark-symbol role-legend-symbol" pointer-events="none"><path transform="translate(6,6)" d="M-5,0L5,0" stroke="#E8E9EB" stroke-width="1.5" opacity="1"/></g><g class="mark-text role-legend-label" pointer-events="none"><text text-anchor="start" transform="translate(16,9)" font-family="sans-serif" font-size="10px" fill="#000" opacity="1">2017</text></g></g><path class="foreground" aria-hidden="true" d="" pointer-events="none" display="none"/></g><g transform="translate(0,91)"><path class="background" aria-hidden="true" d="M0,0h48v11h-48Z" pointer-events="none" opacity="1"/><g><g class="mark-symbol role-legend-symbol" pointer-events="none"><path transform="translate(6,6)" d="M-5,0L5,0" stroke="#E8E9EB" stroke-width="1.5" opacity="1"/></g><g class="mark-text role-legend-label" pointer-events="none"><text text-anchor="start" transform="translate(16,9)" font-family="sans-serif" font-size="10px" fill="#000" opacity="1">2018</text></g></g><path class="foreground" aria-hidden="true" d="" pointer-events="none" display="none"/></g><g transform="translate(0,104)"><path class="background" aria-hidden="true" d="M0,0h48v11h-48Z" pointer-events="none" opacity="1"/><g><g class="mark-symbol role-legend-symbol" pointer-events="none"><path transform="translate(6,6)" d="M-5,0L5,0" stroke="#E8E9EB" stroke-width="1.5" opacity="1"/></g><g class="mark-text role-legend-label" pointer-events="none"><text text-anchor="start" transform="translate(16,9)" font-family="sans-serif" font-size="10px" fill="#000" opacity="1">2019</text></g></g><path class="foreground" aria-hidden="true" d="" pointer-events="none" display="none"/></g><g transform="translate(0,117)"><path class="background" aria-hidden="true" d="M0,0h48v11h-48Z" pointer-events="none" opacity="1"/><g><g class="mark-symbol role-legend-symbol" pointer-events="none"><path transform="translate(6,6)" d="M-5,0L5,0" stroke="#E8E9EB" stroke-width="1.5" opacity="1"/></g><g class="mark-text role-legend-label" pointer-events="none"><text text-anchor="start" transform="translate(16,9)" font-family="sans-serif" font-size="10px" fill="#000" opacity="1">2020</text></g></g><path class="foreground" aria-hidden="true" d="" pointer-events="none" display="none"/></g><g transform="translate(0,130)"><path class="background" aria-hidden="true" d="M0,0h48v11h-48Z" pointer-events="none" opacity="1"/><g><g class="mark-symbol role-legend-symbol" pointer-events="none"><path transform="translate(6,6)" d="M-5,0L5,0" stroke="#ffbfbf" stroke-width="1.5" opacity="1"/></g><g class="mark-text role-legend-label" pointer-events="none"><text text-anchor="start" transform="translate(16,9)" font-family="sans-serif" font-size="10px" fill="#000" opacity="1">2021</text></g></g><path class="foreground" aria-hidden="true" d="" pointer-events="none" display="none"/></g><g transform="translate(0,143)"><path class="background" aria-hidden="true" d="M0,0h48v11h-48Z" pointer-events="none" opacity="1"/><g><g class="mark-symbol role-legend-symbol" pointer-events="none"><path transform="translate(6,6)" d="M-5,0L5,0" stroke="#b30000" stroke-width="1.5" opacity="1"/></g><g class="mark-text role-legend-label" pointer-events="none"><text text-anchor="start" transform="translate(16,9)" font-family="sans-serif" font-size="10px" fill="#000" opacity="1">2022</text></g></g><path class="foreground" aria-hidden="true" d="" pointer-events="none" display="none"/></g></g></g><path class="foreground" aria-hidden="true" d="" pointer-events="none" display="none"/></g></g><g class="mark-text role-legend-title" pointer-events="none"><text text-anchor="start" transform="translate(0,9)" font-family="sans-serif" font-size="11px" font-weight="bold" fill="#000" opacity="1">year</text></g></g><path class="foreground" aria-hidden="true" d="" pointer-events="none" display="none"/></g></g><g class="mark-group role-title"><g transform="translate(200,-17)"><path class="background" aria-hidden="true" d="M0,0h0v0h0Z" pointer-events="none"/><g><g class="mark-text role-title-text" role="graphics-symbol" aria-roledescription="title" aria-label="Title text 'electricity usage (pct of capacity) : 10:00-18:00, business days'" pointer-events="none"><text text-anchor="middle" transform="translate(0,10)" font-family="sans-serif" font-size="13px" font-weight="bold" fill="#000" opacity="1">electricity usage (pct of capacity) : 10:00-18:00, business days</text></g></g><path class="foreground" aria-hidden="true" d="" pointer-events="none" display="none"/></g></g></g><path class="foreground" aria-hidden="true" d="" display="none"/></g></g></g></svg>