<?xml version="1.0" encoding="utf-8"?>
<!-- Generator: Adobe Illustrator 26.3.1, SVG Export Plug-In . SVG Version: 6.00 Build 0)  -->
<svg version="1.1" id="Layer_1" xmlns="http://www.w3.org/2000/svg" xmlns:xlink="http://www.w3.org/1999/xlink" x="0px" y="0px"
	 viewBox="0 0 504 359" style="enable-background:new 0 0 504 359;" xml:space="preserve">
<style type="text/css">
	.st0{fill:none;}
	.st1{fill:none;stroke:#888888;stroke-miterlimit:10;}
	.st2{font-family:'ArialMT';}
	.st3{font-size:12px;}
	.st4{fill:none;stroke:#E8E9EB;stroke-width:2;stroke-miterlimit:10;}
	.st5{fill:none;stroke:#FFBFBF;stroke-width:2;stroke-miterlimit:10;}
	.st6{fill:none;stroke:#B30000;stroke-width:2;stroke-miterlimit:10;}
	.st7{fill:none;stroke:#E8E9EB;stroke-width:1.5;stroke-miterlimit:10;}
	.st8{font-family:'Helvetica';}
	.st9{font-size:14px;}
	.st10{fill:none;stroke:#FFBFBF;stroke-width:1.5;stroke-miterlimit:10;}
	.st11{fill:none;stroke:#B30000;stroke-width:1.5;stroke-miterlimit:10;}
	.st12{font-family:'Arial-BoldMT';}
	.st13{fill:#565656;}
	.st14{fill:none;stroke:#AAA7A7;stroke-miterlimit:10;}
	.st15{font-size:13px;}
	.st16{fill:#B30000;}
	.st17{font-size:18px;}
	.st18{fill:none;stroke:#B30000;stroke-dasharray:4.0695,4.0695;}
</style>
<g id="Layer_1_00000066496732139435479570000008474626919906337451_">
	<g id="Layer_1_00000032641153498346003470000017363626494702359223_">
		<g transform="translate(39,22)">
			<g>
				<g transform="translate(0,0)">
					<g>
						<g id="x_ticks">
							<g transform="translate(0.5,300.5)">
								<path pointer-events="none" class="st0" d="M24.2,1.9L24.2,1.9L24.2,1.9L24.2,1.9z"/>
								<g>
									<g pointer-events="none">
										<line class="st1" x1="24.2" y1="1.9" x2="24.2" y2="6.6"/>
										<line class="st1" x1="56.5" y1="1.9" x2="56.5" y2="6.6"/>
										<line class="st1" x1="85.8" y1="1.9" x2="85.8" y2="6.6"/>
										<line class="st1" x1="118" y1="1.9" x2="118" y2="6.6"/>
										<line class="st1" x1="149.3" y1="1.9" x2="149.3" y2="6.6"/>
										<line class="st1" x1="181.5" y1="1.9" x2="181.5" y2="6.6"/>
										<line class="st1" x1="212.7" y1="1.9" x2="212.7" y2="6.6"/>
										<line class="st1" x1="245" y1="1.9" x2="245" y2="6.6"/>
										<line class="st1" x1="277.2" y1="1.9" x2="277.2" y2="6.6"/>
										<line class="st1" x1="308.4" y1="1.9" x2="308.4" y2="6.6"/>
										<path id="SVGID_x5F_1_x5F_" class="st0" d="M340.6,1.9v4.7"/>
										<text class="st2 st3"> </text>
										<line class="st1" x1="371.9" y1="1.9" x2="371.9" y2="6.6"/>
									</g>
									<g pointer-events="none">
										<line class="st1" x1="24.2" y1="1.9" x2="403.1" y2="1.9"/>
									</g>
									<g pointer-events="none">
									</g>
								</g>
								<path pointer-events="none" d="M24.2,1.9"/>
								<line class="st0" x1="340.6" y1="1.9" x2="340.6" y2="6.6"/>
								<line class="st0" x1="340.6" y1="1.9" x2="340.6" y2="6.6"/>
							</g>
						</g>
						<g id="chart">
							<g transform="translate(0,0)">
								<path class="st0" d="M24.3,17.7h378.9v284.2H24.3V17.7z"/>
								<g>
									<g>
										<path class="st4" d="M112.7,54l7.3,37.4l7.3,45.3l7.3,30.7l7.3-53.4l7.3,15l7.3-28.4l7.3,32.9L171,189l7.3-1.4l7.3,6.1
											l7.3-14.5l7.3,8.9l7.3-46.5l7.3-5l7.3,3.5l7.3-26l7.3,170.7l7.3-54.3l7.3-39.2l7.3-53.7l7.3,74.3L273,228l7.3-76.6
											l7.3,36.4l7.3-45.3l7.3,128.8l7.3-62.6l7.3-50.6l7.3-63.4l7.3,4.1l7.3-3.9l7.3-11.5l7.3,12.4l7.3-1.7l7.3-7.4l7.3,0.5
											l7.3-11.9l7.3,21.2l7.3-5.7"/>
									</g>
								</g>
								<path class="st4" d="M24.3,17.7"/>
							</g>
							<g transform="translate(0,0)">
								<path class="st0" d="M24.3,17.7h378.9v284.2H24.3V17.7z"/>
								<g>
									<g>
										<path class="st4" d="M24.3,138.1l7.3,7.9l7.3-49.2l7.3-21.5l7.3,15.4l7.3-2.1l7.3,9.4l7.3,2.1l7.3,28.7L88.9,86l7.3,16.1
											l7.2-6.6l7.3,0.4l7.3,33.2l7.3-25.9l7.3,22.6l7.3-22.5l7.3,7l7.3,43.6l7.3-23.5l7.3-1.9l7.3,14l7.3,1.2l7.3,9.3l7.3,40.6
											l7.3-26.7l7.3,22.5l7.3,10.6l7.3-48.5l7.3-1.1l7.3-15.5l7.3-27l7.3,66.2l7.3,7.8l7.3-86.9l7.3,11.7l7.3,6.2l7.3-45.7
											l7.3,49.1l7.3,2.7l7.3-58.5l7.3,46.8l7.3-23l7.3,28l7.3-10.6l7.3-11.3l7.3,8.1l7.3-22.8l7.3-36.9l7.3,54.8l7.3-4.2l7.3-16
											l7.3,2.3"/>
									</g>
								</g>
								<path class="st4" d="M24.3,17.7"/>
							</g>
							<g transform="translate(0,0)">
								<path class="st0" d="M24.3,17.7h378.9v284.2H24.3V17.7z"/>
								<g>
									<g>
										<path class="st4" d="M29.5,142.5L36.8,89l7.3-28l7.3,18.5l7.3,49.6L66,114l7.3-33.6l7.3-7.8l7.3,30.1l7.3,38l7.2-5.3
											l7.3,26l7.3-57.6l7.3,7.7l7.3,11.6l7.3-10.7l7.3,45.2l7.3-15.5l7.3-8.6l7.3-16l7.3,7l7.3,9.8l7.3-1.1l7.3-23.4l7.3,12.4
											l7.3,40.3l7.3-5.3l7.3-70.9l7.3,90.8l7.3-40l7.3-21.5l7.3-43.7l7.3,35.4l7.3,6.2l7.3,12.9l7.3-6.4l7.3,4.3l7.3,39.4
											l7.3,3.1l7.3-34.5l7.3-55.2l7.3,23.1l7.3,4.1l7.3-3.5l7.3-4.9l7.3-4.4l7.3,5.8l7.3-8.1l7.3,37l7.3-22.2l7.3-5.9l7.3,23.7"
											/>
									</g>
								</g>
								<path class="st4" d="M24.3,17.7"/>
							</g>
							<g transform="translate(0,0)">
								<path class="st0" d="M24.3,17.7h378.9v284.2H24.3V17.7z"/>
								<g>
									<g>
										<path class="st4" d="M28.4,190.5l7.3-93L43,87.3l7.3,55l7.3,22.2l7.3-66.1l7.3,1.9l7.3,24.8l7.3,30.9l7.3-34l7.2,24.3
											l7.3,8.7l7.3,33.1l7.3-31.4l7.3-11.5l7.3-29.4l7.3,26.9l7.3-2.6l7.3,36.7l7.3-45.3l7.3,9.6l7.3-38.2l7.3,19.7l7.3,45.6
											l7.3-14.3l7.3-1.2l7.3,21.4l7.3-19.8l7.3-5.3l7.3-37.3l7,12.3l7.3,1l7.3,83.1l7.3-84.1l7.3,98.5l7.3-46.3l7.3-15.7
											l7.3,23.3l7.3-45.1l7.3-16.9l7.3,52.1h7.3l7.3-43.6l7.3,5l7.3-20.1l7.3,10.6l7.3-11.7l7.3,29.9l7.3,0.5l7.3-7.3l7.3-36
											l7.3,40.8"/>
									</g>
								</g>
								<path class="st4" d="M24.3,17.7"/>
							</g>
							<g transform="translate(0,0)">
								<path class="st0" d="M24.3,17.7h378.9v284.2H24.3V17.7z"/>
								<g>
									<g>
										<path class="st4" d="M27.4,165.3l7.3-6.1l7.3-7l7.3-1.2l7.3,9.9l7.3-13l7.3-2.8l7.3,1.6l7.3,30.7l7.3-4.2l7.2-21.4
											l7.3,15.1l7.3,9.2l7.3-2.1l7.3-54.6l7.3,23.1l7.3,22.7l7.3,6.8l7.3-7.1l7.3-19.6l7.3,17.4l7.3-16.4l7.3,35h7.3l7.3-8
											l7.3-6.9l7.3,48.4l7.3-35.5l7.3-51.9l7.3,6.4l7.3-24.4l7.3-6.5l7.3,67l7.3,13.3l7.3,41.6l7.3-87.1l7.3-4l7.3,18.9l7.3-7.5
											h7.3l7.3-3.7l7.3-18.2l7.3-17.3l7.3,1.9l7.3,5.1l7.3-26.8l7.3,57.9l7.3-30.6l7.3,23.6l7.3-8.7l7.3-17.8l7.3,9.4"/>
									</g>
								</g>
								<path class="st4" d="M24.3,17.7"/>
							</g>
							<g transform="translate(0,0)">
								<path class="st0" d="M24.3,17.7h378.9v284.2H24.3V17.7z"/>
								<g>
									<g>
										<path class="st4" d="M26.4,106.6l7.3-5.5L41,72.6L48.2,91l7.3,13.6l7.3,7l7.3,6.7l7.3-18.6l7.3-20.3L90.9,94l7.3-6.5
											l7.2,37.7l7.3-6.5l7.3-2.6l7.3-20l7.3,19.7l7.3,10.9l7.3,5.3l7.3-25.5l7.3,20.6l7.3,27.3l7.3-15.2l7.3,5.4l7.3-38.8
											l7.3,39.8l7.3-20.1l7.3,5.3l7.3,35.9l7.3-42l7.3,27.4l7.3-11.8l7.3-20.8l7.3,25.8l7.3-10.1l7.3,4h7.3l7.3-37l7.3,19.6
											l7.3,12.1l7.3-6.5l7.3-17.1l7.3-2.1l7.3-12.8l7.3-10.9l7.3,7.3l7.3-17.4l7.3,23.1l7.3-19.1l7.3,17.7l7.3,24.2l7.3-41.2
											l7.3,41.4"/>
									</g>
								</g>
								<path class="st4" d="M24.3,17.7"/>
							</g>
							<g transform="translate(0,0)">
								<path class="st0" d="M24.3,17.7h378.9v284.2H24.3V17.7z"/>
								<g>
									<g>
										<path class="st4" d="M24.3,93.1l7.3,21.6l7.3-23.9l7.3-8.6l7.3-0.5l7.3,4.9L68,66.8l7.3,38.2l7.3,4.4l7.3-19.2l7.3-15.9
											l7.2,2.3l7.3,8l7.3,10l7.3,27.1l7.3-12.7l7.3,27.3l7.3-14.3l7.3,0.7l7.3,21.7l7.3,0.1l7.3-3.1l7.3,5.7l7.3-42.4l7.3,47.4
											l7.3-34.3l7.3-8.7l7.3,10.6l7.3-7l7.3,23.6l7.3,1.7l7.3-19.7l7.3,16.7l7.3,22.7l7.3-62.2l7.3,20.4l7.3,20.1l7.3-29l7.3,31
											l7.3-11l7.3-18.7l7.3-19.1l7.3,0.4l7.3,12l7.3,23.8l7.3-31l7.3-5.4l7.3-7.8l7.3,12.5l7.3-14.6l7.3-13.9l7.3,18.3l7.3,13.8
											"/>
									</g>
								</g>
								<path class="st4" d="M24.3,17.7"/>
							</g>
							<g transform="translate(0,0)">
								<path class="st0" d="M24.3,17.7h378.9v284.2H24.3V17.7z"/>
								<g>
									<g>
										<path class="st4" d="M30.5,112.4l7.3-35.3l7.3,22.8l7.3-68.1l7.3,54.1l7.3-8.3l7.3,43.9l7.3,11.5l7.3,67.9l7.3-61.2
											l7.2,40.2l7.3-44.9l7.3,23.1l7.3-23.4l7.3-11.3l7.3,7.7l7.3,10.7l7.3,14.4l7.3-37.8l7.3,20.2l7.3,3.6l7.3-16.8l7.3,10.7
											l7.3,9.1l7.3,3.9l7.3-21.5l7.3-13.1l7.3,3.7l7.3-41.7l7.3,47.3l7.3-26.3l7.3,34.1l7.3,48.3l7.3-94.6l7.3,27.3l7.3,17.8
											l7.3,15.4l7.3-1.4l7.3,3.4l7.3-15.7l7.3-32.2l7.3,4l7.3,3.5l7.3,22.9l7.3-5.9l7.3,11.7l7.3-17l7.3,8.9l7.3-13.8l7.3-57.4
											l7.3,54.2l7.3,4.9"/>
									</g>
								</g>
								<path class="st4" d="M24.3,17.7"/>
							</g>
							<g transform="translate(0,0)">
								<path class="st0" d="M24.3,17.7h378.9v284.2H24.3V17.7z"/>
								<g>
									<g>
										<path class="st4" d="M29.5,127l7.3-18l7.3,1.9l7.3-3.9l7.3,21.9L66,142l7.3-6.1l7.3,12.4l7.3-29.5l7.3-15.8l7.2,4.3
											l7.3,9.6l7.3-12.4l7.3,9.4l7.3-34.5l7.3,43.2l7.3,14.1l7.3-4.8l7.3,19l7.3,5l7.3,16.7l7.3-7.3l7.3-7l7.3-9.1l7.3,8.4
											l7.3,13.5l7.3-25.5l7.3,22.1l7.3-28.8l7.3-2.7l7.3-32l7.3-6l7.3,68l7.3-16.2l7.3-6.3l7.3-21.8l7.3-10.9l7.3,51.8l7.3-3.7
											l7.3-37.5l7.3,19.2l7.3-25.7l7.3-4.6l7.3,17.7l7.3,5.4l7.3-16.1l7.3,11l7.3-32.5l7.3,40.7l7.3-9.2l7.3,23.1l7.3,2.3"/>
									</g>
								</g>
								<path class="st4" d="M24.3,17.7"/>
							</g>
							<g transform="translate(0,0)">
								<path class="st0" d="M24.3,17.7h378.9v284.2H24.3V17.7z"/>
								<g>
									<g>
										<path class="st4" d="M28.4,144.6l7.3,4.3l7.3-0.8l7.3,10.3l7.3,3.6l7.3-19.3l7.3,28.7l7.3-5.3l6.2-25.2L93,132l7.2,27
											l7.3,50.8l7.3-47.4l7.3,2.4l7.3-3.4l7.3-21.7l7.3,6.1l7.3,67.8l7.3,43.1l7.3-70.9l7.3-13l7.3,24.5l7.3-35.2l7.3-7
											l7.3,45.3l7.3-2.3l7.3-21.7l7.3-46.8l7.3,64.9l7.3-45.7l7.3,31.3l7.3-28.3l7.3,6.3l7.3-43.1l7.3,19l7.3-3.2l7.3-3.7
											l7.3,60l7.3-11.6l7.3-1.3l7.3-30.6l7.3,1.8l7.3-19.6l7.3,5l7.3-7.4l7.3,10.8l7.3,30.9l7.3-44.1l7.3-13.9l7.3,50.1
											l7.3-90.7L399,117"/>
									</g>
								</g>
								<path class="st4" d="M24.3,17.7"/>
							</g>
							<g transform="translate(0,0)">
								<path class="st0" d="M24.3,17.7h378.9v284.2H24.3V17.7z"/>
								<g>
									<g>
										<path class="st5" d="M26.4,89.6l7.3,25.6l7.3-2.7l7.3,13.8l7.3,16.3l7.3,28l7.3,19.5l7.3-32.6l7.3,24.8l7.3-1.4l7.2-12.8
											l7.3,44.1l7.3-0.4l7.3-6.7l7.3-92.7l7.3-31l7.3,28.9l7.3,40.3l7.3-25.8l7.3-8.2l7.3-14.2l7.3,14.3l7.3-11.2l7.3,2.5
											l7.3,23.1l7.3-12.3l7.3,6.6l7.3-26.1l7.3,3.1l7.3-1.2l7.3,14.7l7.3-34.6l7.3,91.6l7.3-55.6l7.3-30.8l7.3,41l7.3,20.4
											l7.3-30.6l7.3-0.9l7.3,4.7l7.3-21.6l7.3,24.5l7.3-14.4l7.3,12l7.3-2.1l7.3-10.6l7.3-24.7l7.3-32.6l7.3,44.1l7.3-8.5
											l7.3,13.9l7.3,27.4"/>
									</g>
								</g>
								<path class="st5" d="M24.3,17.7"/>
							</g>
							<g transform="translate(0,0)">
								<path class="st0" d="M24.3,17.7h378.9v284.2H24.3V17.7z"/>
								<g>
									<g>
										<path class="st6" d="M25.3,122.1l7.3-18.6l7.3-5.3l7.3-12.5l7.3,46.5l7.3-9.4l7.3,10.5l7.3-3.4l7.3,3.1l7.3,29.7l7.3-15.1
											l7.2,0.4l7.3-41.8l7.3,36.4l7.3,18.1h7.3l7.3-0.7l7.3-11.8l7.3,18l7.3-16.6l7.3-26.4l7.3,7.2l7.3,15.8l7.3-12.5l7.3,12.2
											l7.3-59L215,42"/>
									</g>
								</g>
								<path class="st6" d="M24.3,17.7"/>
							</g>
						</g>
						<g id="legend">
							<g transform="translate(420,0)">
								<path pointer-events="none" class="st0" d="M-89.4,232.5h37.9v161h-37.9V232.5z"/>
								<g>
									<g>
										<g transform="translate(0,16)">
											<path pointer-events="none" class="st0" d="M-89.4,231.7L-89.4,231.7L-89.4,231.7L-89.4,231.7z"/>
											<g>
												<g>
													<g transform="translate(0,0)">
														<path pointer-events="none" class="st0" d="M-107.4,232.7h37.9v10.4h-37.9V232.7z"/>
														<g>
															<g pointer-events="none">
																<path class="st7" d="M-106.5,238.4h9.5"/>
															</g>
															<g pointer-events="none">
																<text transform="matrix(1 0 0 1 -92.2761 241.1976)" class="st8 st9">2011 - 2020</text>
															</g>
														</g>
														<path pointer-events="none" d="M-107.4,232.7"/>
													</g>
													<g transform="translate(0,130)">
														<path pointer-events="none" class="st0" d="M-107.4,117.8h37.9v10.4h-37.9V117.8z"/>
														<g>
															<g pointer-events="none">
																<path class="st10" d="M-106.5,123.5h9.5"/>
															</g>
															<g pointer-events="none">
																<text transform="matrix(1 0 0 1 -92.2761 126.3382)" class="st8 st9">2021</text>
															</g>
														</g>
														<path pointer-events="none" d="M-107.4,117.8"/>
													</g>
													<g transform="translate(0,143)">
														<path pointer-events="none" class="st0" d="M-107.4,121.1h37.9v10.4h-37.9V121.1z"/>
														<g>
															<g pointer-events="none">
																<path class="st11" d="M-106.5,126.8h9.5"/>
															</g>
															<g pointer-events="none">
																<text transform="matrix(1 0 0 1 -92.2761 129.6517)" class="st8 st9">2022</text>
															</g>
														</g>
														<path pointer-events="none" d="M-107.4,121.1"/>
													</g>
												</g>
											</g>
											<path pointer-events="none" d="M-89.4,231.7"/>
										</g>
									</g>
									<g pointer-events="none">
										<text transform="matrix(1 0 0 1 -105.4324 238.0418)" class="st12 st9">year</text>
									</g>
								</g>
								<path pointer-events="none" d="M-89.4,232.5"/>
							</g>
						</g>
						<g id="header">
							<g transform="translate(200,-17)">
								<path pointer-events="none" class="st0" d="M13.7,18.6L13.7,18.6L13.7,18.6L13.7,18.6z"/>
								<g>
									<g pointer-events="none">
									</g>
								</g>
								<path pointer-events="none" d="M13.7,18.6"/>
							</g>
						</g>
					</g>
					<path d="M24.3,17.7"/>
					<g id="y_ticks">
						<g transform="translate(0.5,0.5)">
							<path pointer-events="none" class="st13" d="M24.2,17.7L24.2,17.7L24.2,17.7L24.2,17.7z"/>
							<g>
								<g pointer-events="none">
									<line class="st1" x1="24.2" y1="272.5" x2="19.5" y2="272.5"/>
									<line class="st1" x1="24.2" y1="223.2" x2="19.5" y2="223.2"/>
									<line class="st1" x1="24.2" y1="174.9" x2="19.5" y2="174.9"/>
									<line class="st1" x1="24.2" y1="125.7" x2="19.5" y2="125.7"/>
									<line class="st1" x1="24.2" y1="76.4" x2="19.5" y2="76.4"/>
									<line class="st1" x1="24.2" y1="27.2" x2="19.5" y2="27.2"/>
								</g>
								<g pointer-events="none">
									<text transform="matrix(1 0 0 1 -5.3509 275.3066)" class="st13 st8 st9">70</text>
									<text transform="matrix(1 0 0 1 -5.3509 226.3125)" class="st13 st8 st9">75</text>
									<text transform="matrix(1 0 0 1 -5.3509 177.3174)" class="st13 st8 st9">80</text>
									<text transform="matrix(1 0 0 1 -5.3509 128.3228)" class="st13 st8 st9">85</text>
									<text transform="matrix(1 0 0 1 -5.3509 79.3276)" class="st13 st8 st9">90</text>
									<text transform="matrix(1 0 0 1 -5.3509 30.333)" class="st13 st8 st9">95</text>
								</g>
								<g pointer-events="none">
									<line class="st1" x1="24.2" y1="301.9" x2="24.2" y2="17.7"/>
								</g>
								<g pointer-events="none">
								</g>
							</g>
							<path pointer-events="none" class="st13" d="M24.2,17.7"/>
						</g>
					</g>
					<rect x="26.2" y="17.3" class="st0" width="41.1" height="29.5"/>
					<text transform="matrix(1 0 0 1 28.2378 31.2236)" class="st13 st2 st9">%</text>
				</g>
				<line class="st14" x1="341.1" y1="302.4" x2="341.1" y2="307.1"/>
				<rect x="38.7" y="-8" class="st0" width="371.8" height="23.3"/>
				<rect x="11.6" y="311.9" class="st0" width="27.1" height="16.8"/>
				<text transform="matrix(1 0 0 1 11.5654 320.4619)" class="st13 st2 st15"> Jan</text>
				<rect x="105.3" y="311.9" class="st0" width="27.1" height="16.8"/>
				<text transform="matrix(1 0 0 1 105.2772 320.4619)" class="st13 st2 st15"> Apr</text>
				<rect x="72.5" y="311.9" class="st0" width="27.1" height="16.8"/>
				<text transform="matrix(1 0 0 1 72.5285 320.4619)" class="st13 st2 st15"> Mar</text>
				<rect x="44.1" y="311.9" class="st0" width="27.1" height="16.8"/>
				<text transform="matrix(1 0 0 1 44.1044 320.4619)" class="st13 st2 st15"> Feb</text>
				<rect x="137.1" y="311.9" class="st0" width="27.1" height="16.8"/>
				<text transform="matrix(1 0 0 1 137.0772 320.4629)" class="st13 st2 st15"> May</text>
				<rect x="230.8" y="311.9" class="st0" width="27.1" height="16.8"/>
				<text transform="matrix(1 0 0 1 230.789 320.4629)" class="st13 st2 st15"> Aug</text>
				<rect x="198" y="311.9" class="st0" width="27.1" height="16.8"/>
				<text transform="matrix(1 0 0 1 198.0398 320.4629)" class="st13 st2 st15"> Jul</text>
				<rect x="169.6" y="311.9" class="st0" width="27.1" height="16.8"/>
				<text transform="matrix(1 0 0 1 169.6162 320.4629)" class="st13 st2 st15"> Jun</text>
				<rect x="264.4" y="311.9" class="st0" width="27.1" height="16.8"/>
				<text transform="matrix(1 0 0 1 264.4395 320.4619)" class="st13 st2 st15"> Sep</text>
				<rect x="358.2" y="311.9" class="st0" width="27.1" height="16.8"/>
				<text transform="matrix(1 0 0 1 358.1513 320.4619)" class="st13 st2 st15"> Dec</text>
				<rect x="325.4" y="311.9" class="st0" width="27.1" height="16.8"/>
				<text transform="matrix(1 0 0 1 325.4016 320.4619)" class="st13 st2 st15"> Nov</text>
				<rect x="297" y="311.9" class="st0" width="27.1" height="16.8"/>
				<text transform="matrix(1 0 0 1 296.9785 320.4619)" class="st13 st2 st15"> Oct</text>
			</g>
			<text transform="matrix(1 0 0 1 227.7305 10.1797)" class="st16 st2 st17">sharp increase</text>
			<text transform="matrix(1 0 0 1 227.7305 31.7797)" class="st16 st2 st17">since late June</text>
		</g>
		<g>
			<path class="st18" d="M233.8,80.6c2.4-16.6,11-29.2,19.1-28c19.2,4.1,10.7,61.8-8.9,60.3C236,111.7,231.4,97.3,233.8,80.6
				L233.8,80.6z"/>
		</g>
	</g>
	<g id="ai2html-settings">
		<rect x="-450" class="st0" width="400" height="418"/>
		<text transform="matrix(1 0 0 1 -450 10.6499)" class="st2" style="font-size:15px;">ai2html-settings</text>
		<text transform="matrix(1 0 0 1 -450 29.6499)" class="st2" style="font-size:15px;">settings_version: 0.111.0</text>
		<text transform="matrix(1 0 0 1 -450 48.6499)" class="st2" style="font-size:15px;">image_format: auto</text>
		<text transform="matrix(1 0 0 1 -450 67.6499)" class="st2" style="font-size:15px;">responsiveness: fixed</text>
		<text transform="matrix(1 0 0 1 -450 86.6499)" class="st2" style="font-size:15px;">output: one-file</text>
		<text transform="matrix(1 0 0 1 -450 105.6499)" class="st2" style="font-size:15px;">html_output_path: /ai2html-output/</text>
		<text transform="matrix(1 0 0 1 -450 124.6499)" class="st2" style="font-size:15px;">html_output_extension: .html</text>
		<text transform="matrix(1 0 0 1 -450 143.6499)" class="st2" style="font-size:15px;">image_output_path: </text>
		<text transform="matrix(1 0 0 1 -450 162.6499)" class="st2" style="font-size:15px;">local_preview_template: </text>
		<text transform="matrix(1 0 0 1 -450 181.6499)" class="st2" style="font-size:15px;">png_number_of_colors: 128</text>
		<text transform="matrix(1 0 0 1 -450 200.6499)" class="st2" style="font-size:15px;">jpg_quality: 60</text>
		<text transform="matrix(1 0 0 1 -450 219.6499)" class="st2" style="font-size:15px;">headline: </text>
		<text transform="matrix(1 0 0 1 -450 238.6499)" class="st2" style="font-size:15px;">leadin: </text>
		<text transform="matrix(1 0 0 1 -450 257.6499)" class="st2" style="font-size:15px;">notes: </text>
		<text transform="matrix(1 0 0 1 -450 276.6499)" class="st2" style="font-size:15px;">sources: </text>
		<text transform="matrix(1 0 0 1 -450 295.6499)" class="st2" style="font-size:15px;">credit: </text>
	</g>
</g>
<g id="ai2html-settings_00000064355527937907260550000001846240195513186985_">
	<rect x="-450" class="st0" width="400" height="418"/>
	<text transform="matrix(1 0 0 1 -450 10.6499)" class="st2" style="font-size:15px;">ai2html-settings</text>
	<text transform="matrix(1 0 0 1 -450 29.6499)" class="st2" style="font-size:15px;">settings_version: 0.111.0</text>
	<text transform="matrix(1 0 0 1 -450 48.6499)" class="st2" style="font-size:15px;">image_format: auto</text>
	<text transform="matrix(1 0 0 1 -450 67.6499)" class="st2" style="font-size:15px;">responsiveness: fixed</text>
	<text transform="matrix(1 0 0 1 -450 86.6499)" class="st2" style="font-size:15px;">output: one-file</text>
	<text transform="matrix(1 0 0 1 -450 105.6499)" class="st2" style="font-size:15px;">html_output_path: /ai2html-output/</text>
	<text transform="matrix(1 0 0 1 -450 124.6499)" class="st2" style="font-size:15px;">html_output_extension: .html</text>
	<text transform="matrix(1 0 0 1 -450 143.6499)" class="st2" style="font-size:15px;">image_output_path: </text>
	<text transform="matrix(1 0 0 1 -450 162.6499)" class="st2" style="font-size:15px;">local_preview_template: </text>
	<text transform="matrix(1 0 0 1 -450 181.6499)" class="st2" style="font-size:15px;">png_number_of_colors: 128</text>
	<text transform="matrix(1 0 0 1 -450 200.6499)" class="st2" style="font-size:15px;">jpg_quality: 60</text>
	<text transform="matrix(1 0 0 1 -450 219.6499)" class="st2" style="font-size:15px;">headline: </text>
	<text transform="matrix(1 0 0 1 -450 238.6499)" class="st2" style="font-size:15px;">leadin: </text>
	<text transform="matrix(1 0 0 1 -450 257.6499)" class="st2" style="font-size:15px;">notes: </text>
	<text transform="matrix(1 0 0 1 -450 276.6499)" class="st2" style="font-size:15px;">sources: </text>
	<text transform="matrix(1 0 0 1 -450 295.6499)" class="st2" style="font-size:15px;">credit: </text>
</g>
</svg>
