<?xml version="1.0" encoding="utf-8"?>
<!-- Generator: Adobe Illustrator 26.3.1, SVG Export Plug-In . SVG Version: 6.00 Build 0)  -->
<svg version="1.1" id="Layer_1" xmlns="http://www.w3.org/2000/svg" xmlns:xlink="http://www.w3.org/1999/xlink" x="0px" y="0px"
	 viewBox="0 0 627 459" style="enable-background:new 0 0 627 459;" xml:space="preserve">
<style type="text/css">
	.st0{fill:#FFFFFF;}
	.st1{fill:none;stroke:#DDDDDD;stroke-miterlimit:10;}
	.st2{fill:none;}
	.st3{fill:none;stroke:#888888;stroke-miterlimit:10;}
	.st4{font-family:'ArialMT';}
	.st5{font-size:14px;}
	.st6{font-family:'Helvetica-Bold';}
	.st7{display:none;}
	.st8{fill:#565656;}
	.st9{fill:#565656;stroke:#888888;stroke-miterlimit:10;}
	.st10{font-size:16px;}
	.st11{fill:#F58518;}
	.st12{fill:#4C78A8;}
	.st13{fill:#54A24B;}
	.st14{fill:#E45756;}
	.st15{fill:#FF9DA6;}
	.st16{fill:#72B7B2;}
	.st17{fill:#EECA3B;}
	.st18{fill:#B279A2;}
	.st19{enable-background:new    ;}
	.st20{font-family:'Helvetica';}
	.st21{font-size:14.8959px;}
	.st22{font-size:13.5549px;}
	.st23{fill:none;stroke:#000000;stroke-width:2;stroke-miterlimit:10;}
</style>
<rect class="st0" width="627" height="459"/>
<g transform="translate(60,22)">
	<g>
		<g transform="translate(0,0)">
			<path class="st1" d="M0.5,0.5h400v400H0.5V0.5z"/>
			<g>
				<g id="xlabels">
					<g transform="translate(0.5,400.5)">
						<path pointer-events="none" class="st2" d="M0,0L0,0L0,0L0,0z"/>
						<g>
							<g pointer-events="none">
								<line class="st3" x1="6" y1="0" x2="6" y2="5"/>
								<line class="st3" x1="135" y1="0" x2="135" y2="5"/>
								<line class="st3" x1="264" y1="0" x2="264" y2="5"/>
								<line class="st3" x1="393" y1="0" x2="393" y2="5"/>
							</g>
							<g pointer-events="none">
								<text transform="matrix(1 0 0 1 -5.1714 21)" class="st4 st5">1990</text>
								<text transform="matrix(1 0 0 1 123.8608 21)" class="st4 st5">2000</text>
								<text transform="matrix(1 0 0 1 252.8931 21)" class="st4 st5">2010</text>
								<text transform="matrix(1 0 0 1 381.9254 21)" class="st4 st5">2020</text>
							</g>
							<g pointer-events="none">
								<line class="st3" x1="0" y1="0" x2="400" y2="0"/>
							</g>
							<g pointer-events="none">
								<text transform="matrix(1 0 0 1 428.5002 20.1904)" class="st6 st5">year</text>
							</g>
						</g>
						<path pointer-events="none" class="st7" d="M0,0"/>
					</g>
				</g>
				<g id="ylabels">
					<g transform="translate(0.5,0.5)">
						<path pointer-events="none" class="st8" d="M0,0L0,0L0,0L0,0z"/>
						<g>
							<g pointer-events="none">
								<line class="st9" x1="0" y1="400" x2="-5" y2="400"/>
								<line class="st9" x1="0" y1="329" x2="-5" y2="329"/>
								<line class="st9" x1="0" y1="257" x2="-5" y2="257"/>
								<line class="st9" x1="0" y1="186" x2="-5" y2="186"/>
								<line class="st9" x1="0" y1="114" x2="-5" y2="114"/>
								<line class="st9" x1="0" y1="43" x2="-5" y2="43"/>
							</g>
							<g pointer-events="none">
								<text transform="matrix(1 0 0 1 -30.5615 403)" class="st8 st4 st10">0</text>
								<text transform="matrix(1 0 0 1 -50.0244 331.5714)" class="st8 st4 st10">5,000</text>
								<text transform="matrix(1 0 0 1 -55.5859 260.1429)" class="st8 st4 st10">10,000</text>
								<text transform="matrix(1 0 0 1 -55.5859 188.7143)" class="st8 st4 st10">15,000</text>
								<text transform="matrix(1 0 0 1 -55.5859 117.2857)" class="st8 st4 st10">20,000</text>
								<text transform="matrix(1 0 0 1 -55.5859 45.8571)" class="st8 st4 st10">25,000</text>
							</g>
							<g pointer-events="none">
								<line class="st9" x1="0" y1="400" x2="0" y2="0"/>
							</g>
						</g>
						<path pointer-events="none" class="st7" d="M0,0"/>
					</g>
				</g>
				<g>
					<path class="st11" d="M0.6,232.4h11.6v46.1H0.6L0.6,232.4z"/>
					<path class="st12" d="M0.6,278.6h11.6V400H0.6L0.6,278.6z"/>
					<path class="st13" d="M0.6,170h11.6v27.4H0.6L0.6,170z"/>
					<path class="st14" d="M0.6,206.1h11.6v26.4H0.6L0.6,206.1z"/>
					<path class="st15" d="M0.6,138.4h11.6V170H0.6L0.6,138.4z"/>
					<path class="st16" d="M0.6,197.3h11.6v8.7H0.6L0.6,197.3z"/>
					<path class="st17" d="M0.6,170h11.6l0,0H0.6z"/>
					<path class="st18" d="M0.6,170h11.6l0,0H0.6z"/>
					<path class="st11" d="M13.5,229.3h11.6v47.2H13.5V229.3z"/>
					<path class="st12" d="M13.5,276.4h11.6V400H13.5V276.4z"/>
					<path class="st13" d="M13.5,169.1h11.6v23.2H13.5V169.1z"/>
					<path class="st14" d="M13.5,201.5h11.6v27.8H13.5V201.5z"/>
					<path class="st15" d="M13.5,135.8h11.6v33.3H13.5V135.8z"/>
					<path class="st16" d="M13.5,192.3h11.6v9.2H13.5V192.3z"/>
					<path class="st17" d="M13.5,169.1h11.6l0,0H13.5z"/>
					<path class="st18" d="M13.5,169.1h11.6l0,0H13.5z"/>
					<path class="st11" d="M26.5,222.4h11.6v45.8H26.5L26.5,222.4z"/>
					<path class="st12" d="M26.5,268.3h11.6V400H26.5L26.5,268.3z"/>
					<path class="st13" d="M26.5,164.8h11.6v20.8H26.5L26.5,164.8z"/>
					<path class="st14" d="M26.5,194h11.6v28.4H26.5L26.5,194z"/>
					<path class="st15" d="M26.5,130h11.6v34.8H26.5L26.5,130z"/>
					<path class="st16" d="M26.5,185.6h11.6v8.4H26.5L26.5,185.6z"/>
					<path class="st17" d="M26.5,164.8h11.6l0,0H26.5z"/>
					<path class="st18" d="M26.5,164.8h11.6l0,0H26.5z"/>
					<path class="st11" d="M39.4,222.4H51v46H39.4V222.4z"/>
					<path class="st12" d="M39.4,268.4H51V400H39.4V268.4z"/>
					<path class="st13" d="M39.4,167.2H51v17.1H39.4V167.2z"/>
					<path class="st14" d="M39.4,193.3H51v29.1H39.4V193.3z"/>
					<path class="st15" d="M39.4,128.4H51v38.8H39.4V128.4z"/>
					<path class="st16" d="M39.4,184.4H51v8.9H39.4V184.4z"/>
					<path class="st17" d="M39.4,167.2H51l0,0H39.4z"/>
					<path class="st18" d="M39.4,167.2H51l0,0H39.4z"/>
					<path class="st11" d="M52.3,211.6h11.6v48.5H52.3V211.6z"/>
					<path class="st12" d="M52.3,260.1h11.6V400H52.3V260.1z"/>
					<path class="st13" d="M52.3,155.7h11.6v17.1H52.3V155.7z"/>
					<path class="st14" d="M52.3,180.5h11.6v31.1H52.3V180.5z"/>
					<path class="st15" d="M52.3,113.8h11.6v41.9H52.3V113.8z"/>
					<path class="st16" d="M52.3,172.9h11.6v7.6H52.3V172.9z"/>
					<path class="st17" d="M52.3,155.7h11.6l0,0H52.3z"/>
					<path class="st18" d="M52.3,155.7h11.6l0,0H52.3z"/>
					<path class="st11" d="M65.2,213.9h11.6V264H65.2L65.2,213.9z"/>
					<path class="st12" d="M65.2,264h11.6v136H65.2L65.2,264z"/>
					<path class="st13" d="M65.2,151.7h11.6V173H65.2L65.2,151.7z"/>
					<path class="st14" d="M65.2,182.1h11.6v31.8H65.2L65.2,182.1z"/>
					<path class="st15" d="M65.2,106.3h11.6v45.4H65.2L65.2,106.3z"/>
					<path class="st16" d="M65.2,173h11.6v9.1H65.2L65.2,173z"/>
					<path class="st17" d="M65.2,151.7h11.6l0,0C76.8,151.7,65.2,151.7,65.2,151.7z"/>
					<path class="st18" d="M65.2,151.7h11.6l0,0C76.8,151.7,65.2,151.7,65.2,151.7z"/>
					<path class="st11" d="M78.1,212.7h11.6v51.4H78.1V212.7z"/>
					<path class="st12" d="M78.1,264.1h11.6V400H78.1V264.1z"/>
					<path class="st13" d="M78.1,147.1h11.6v22.5H78.1V147.1z"/>
					<path class="st14" d="M78.1,179.1h11.6v33.6H78.1V179.1z"/>
					<path class="st15" d="M78.1,100h11.6v47.1H78.1V100z"/>
					<path class="st16" d="M78.1,169.6h11.6v9.5H78.1V169.6z"/>
					<path class="st17" d="M78.1,147.1h11.6l0,0H78.1z"/>
					<path class="st18" d="M78.1,147.1h11.6l0,0H78.1z"/>
					<path class="st11" d="M91,209.3h11.6v53H91V209.3z"/>
					<path class="st12" d="M91,262.3h11.6V400H91V262.3z"/>
					<path class="st13" d="M91,146.6h11.6v17.6H91V146.6z"/>
					<path class="st14" d="M91,174.3h11.6v35H91V174.3z"/>
					<path class="st15" d="M91,96.9h11.6v49.7H91V96.9z"/>
					<path class="st16" d="M91,164.2h11.6v10.1H91V164.2z"/>
					<path class="st17" d="M91,146.6h11.6l0,0H91z"/>
					<path class="st18" d="M91,146.6h11.6l0,0H91z"/>
					<path class="st11" d="M103.9,217.8h11.6v49.8h-11.6L103.9,217.8z"/>
					<path class="st12" d="M103.9,267.5h11.6V400h-11.6L103.9,267.5z"/>
					<path class="st13" d="M103.9,154.2h11.6V172h-11.6L103.9,154.2z"/>
					<path class="st14" d="M103.9,181.9h11.6v35.8h-11.6L103.9,181.9z"/>
					<path class="st15" d="M103.9,102.4h11.6v51.8h-11.6L103.9,102.4z"/>
					<path class="st16" d="M103.9,172h11.6v9.9h-11.6L103.9,172z"/>
					<path class="st17" d="M103.9,154.2h11.6l0,0C115.5,154.2,103.9,154.2,103.9,154.2z"/>
					<path class="st18" d="M103.9,154.2h11.6l0,0C115.5,154.2,103.9,154.2,103.9,154.2z"/>
					<path class="st11" d="M116.8,217.1h11.6v53h-11.6L116.8,217.1z"/>
					<path class="st12" d="M116.8,270.2h11.6V400h-11.6L116.8,270.2z"/>
					<path class="st13" d="M116.8,147h11.6v22.6h-11.6L116.8,147z"/>
					<path class="st14" d="M116.8,179.2h11.6v37.9h-11.6L116.8,179.2z"/>
					<path class="st15" d="M116.8,97.6h11.6V147h-11.6L116.8,97.6z"/>
					<path class="st16" d="M116.8,169.6h11.6v9.7h-11.6L116.8,169.6z"/>
					<path class="st17" d="M116.8,147h11.6l0,0C128.4,147,116.8,147,116.8,147z"/>
					<path class="st18" d="M116.8,147h11.6l0,0C128.4,147,116.8,147,116.8,147z"/>
					<path class="st11" d="M129.7,211.4h11.6v58.2h-11.6V211.4z"/>
					<path class="st12" d="M129.7,269.6h11.6V400h-11.6V269.6z"/>
					<path class="st13" d="M129.7,141.5h11.6v21h-11.6V141.5z"/>
					<path class="st14" d="M129.7,172.2h11.6v39.3h-11.6V172.2z"/>
					<path class="st15" d="M129.7,91.3h11.6v50.2h-11.6V91.3z"/>
					<path class="st16" d="M129.7,162.5h11.6v9.7h-11.6V162.5z"/>
					<path class="st17" d="M129.7,141.5h11.6l0,0H129.7z"/>
					<path class="st18" d="M129.7,141.5h11.6l0,0H129.7z"/>
					<path class="st11" d="M142.6,216.5h11.6v59.3h-11.6V216.5z"/>
					<path class="st12" d="M142.6,275.9h11.6V400h-11.6V275.9z"/>
					<path class="st13" d="M142.6,146.2h11.6v21.3h-11.6V146.2z"/>
					<path class="st14" d="M142.6,176.8h11.6v39.7h-11.6V176.8z"/>
					<path class="st15" d="M142.6,96.4h11.6v49.8h-11.6V96.4z"/>
					<path class="st16" d="M142.6,167.5h11.6v9.3h-11.6V167.5z"/>
					<path class="st17" d="M142.6,146.2h11.6l0,0H142.6z"/>
					<path class="st18" d="M142.6,146.2h11.6l0,0H142.6z"/>
					<path class="st11" d="M155.5,213.5h11.6v62.1h-11.6V213.5z"/>
					<path class="st12" d="M155.5,275.6h11.6V400h-11.6V275.6z"/>
					<path class="st13" d="M155.5,141.1h11.6v22.4h-11.6V141.1z"/>
					<path class="st14" d="M155.5,173.7h11.6v39.8h-11.6V173.7z"/>
					<path class="st15" d="M155.5,95.1h11.6v46h-11.6V95.1z"/>
					<path class="st16" d="M155.5,163.6h11.6v10.2h-11.6V163.6z"/>
					<path class="st17" d="M155.5,141.1h11.6l0,0H155.5z"/>
					<path class="st18" d="M155.5,141.1h11.6l0,0H155.5z"/>
					<path class="st11" d="M168.4,209.4H180v64.2h-11.6V209.4z"/>
					<path class="st12" d="M168.4,273.5H180V400h-11.6V273.5z"/>
					<path class="st13" d="M168.4,134.4H180v21.3h-11.6V134.4z"/>
					<path class="st14" d="M168.4,166.7H180v42.6h-11.6V166.7z"/>
					<path class="st15" d="M168.4,97H180v37.4h-11.6V97z"/>
					<path class="st16" d="M168.4,155.7H180v11.1h-11.6V155.7z"/>
					<path class="st17" d="M168.4,134.4H180l0,0H168.4z"/>
					<path class="st18" d="M168.4,134.4H180l0,0H168.4z"/>
					<path class="st11" d="M181.3,204.9h11.6v70.4h-11.6V204.9z"/>
					<path class="st12" d="M181.3,275.3h11.6V400h-11.6V275.3z"/>
					<path class="st13" d="M181.3,130.8h11.6v20.7h-11.6V130.8z"/>
					<path class="st14" d="M181.3,162.7h11.6v42.2h-11.6V162.7z"/>
					<path class="st15" d="M181.3,86.8h11.6v44h-11.6V86.8z"/>
					<path class="st16" d="M181.3,151.5h11.6v11.2h-11.6V151.5z"/>
					<path class="st17" d="M181.3,130.8h11.6l0,0H181.3z"/>
					<path class="st18" d="M181.3,130.8h11.6l0,0H181.3z"/>
					<path class="st11" d="M194.2,206h11.6v66.3h-11.6V206z"/>
					<path class="st12" d="M194.2,272.3h11.6V400h-11.6V272.3z"/>
					<path class="st13" d="M194.2,136.5h11.6v16.4h-11.6V136.5z"/>
					<path class="st14" d="M194.2,163.8h11.6V206h-11.6V163.8z"/>
					<path class="st15" d="M194.2,89h11.6v47.5h-11.6V89z"/>
					<path class="st16" d="M194.2,152.9h11.6v10.9h-11.6V152.9z"/>
					<path class="st17" d="M194.2,136.5h11.6l0,0H194.2z"/>
					<path class="st18" d="M194.2,136.5h11.6l0,0H194.2z"/>
					<path class="st11" d="M207.1,209.7h11.6v67h-11.6V209.7z"/>
					<path class="st12" d="M207.1,276.7h11.6V400h-11.6V276.7z"/>
					<path class="st13" d="M207.1,136.4h11.6v15.4h-11.6V136.4z"/>
					<path class="st14" d="M207.1,163.3h11.6v46.3h-11.6V163.3z"/>
					<path class="st15" d="M207.1,89.1h11.6v47.3h-11.6V89.1z"/>
					<path class="st16" d="M207.1,151.8h11.6v11.6h-11.6V151.8z"/>
					<path class="st17" d="M207.1,136.4h11.6l0,0H207.1z"/>
					<path class="st18" d="M207.1,136.4h11.6l0,0H207.1z"/>
					<path class="st11" d="M220,204.7h11.6v70.1H220V204.7z"/>
					<path class="st12" d="M220,274.8h11.6V400H220V274.8z"/>
					<path class="st13" d="M220,133.1h11.6v10.8H220V133.1z"/>
					<path class="st14" d="M220,155h11.6v49.6H220V155z"/>
					<path class="st15" d="M220,92h11.6v41.1H220V92z"/>
					<path class="st16" d="M220,143.9h11.6V155H220V143.9z"/>
					<path class="st17" d="M220,133.1h11.6l0,0H220z"/>
					<path class="st18" d="M220,133.1h11.6l0,0H220z"/>
					<path class="st11" d="M232.9,211h11.6v68.7h-11.6V211z"/>
					<path class="st12" d="M232.9,279.8h11.6V400h-11.6V279.8z"/>
					<path class="st13" d="M232.9,142.8h11.6v7h-11.6V142.8z"/>
					<path class="st14" d="M232.9,161h11.6v50h-11.6V161z"/>
					<path class="st15" d="M232.9,102.6h11.6v40.2h-11.6V102.6z"/>
					<path class="st16" d="M232.9,149.8h11.6V161h-11.6V149.8z"/>
					<path class="st17" d="M232.9,142.8h11.6l0,0H232.9z"/>
					<path class="st18" d="M232.9,142.8h11.6l0,0H232.9z"/>
					<path class="st11" d="M245.8,228.9h11.6V290h-11.6L245.8,228.9z"/>
					<path class="st12" d="M245.8,290h11.6v110h-11.6L245.8,290z"/>
					<path class="st13" d="M245.8,160.1h11.6v9.1h-11.6L245.8,160.1z"/>
					<path class="st14" d="M245.8,180.7h11.6v48.2h-11.6L245.8,180.7z"/>
					<path class="st15" d="M245.8,116.5h11.6v43.6h-11.6L245.8,116.5z"/>
					<path class="st16" d="M245.8,169.2h11.6v11.4h-11.6L245.8,169.2z"/>
					<path class="st17" d="M245.8,160.1h11.6l0,0H245.8L245.8,160.1z"/>
					<path class="st18" d="M245.8,160.1h11.6l0,0H245.8L245.8,160.1z"/>
					<path class="st11" d="M258.7,220.5h11.6V290h-11.6V220.5z"/>
					<path class="st12" d="M258.7,290h11.6v110h-11.6V290z"/>
					<path class="st13" d="M258.7,145.8h11.6v10.3h-11.6V145.8z"/>
					<path class="st14" d="M258.7,169.2h11.6v51.4h-11.6V169.2z"/>
					<path class="st15" d="M258.7,100.8h11.6v44.9h-11.6V100.8z"/>
					<path class="st16" d="M258.7,156.1h11.6v13h-11.6V156.1z"/>
					<path class="st17" d="M258.7,145.8h11.6l0,0H258.7z"/>
					<path class="st18" d="M258.7,145.8h11.6l0,0H258.7z"/>
					<path class="st11" d="M271.6,227.5h11.6v65h-11.6V227.5z"/>
					<path class="st12" d="M271.6,292.5h11.6V400h-11.6V292.5z"/>
					<path class="st13" d="M271.6,138.9h11.6v15.5h-11.6V138.9z"/>
					<path class="st14" d="M271.6,167.8h11.6v59.7h-11.6V167.8z"/>
					<path class="st15" d="M271.6,123.1h11.6v15.9h-11.6V123.1z"/>
					<path class="st16" d="M271.6,154.4h11.6v13.4h-11.6V154.4z"/>
					<path class="st17" d="M271.6,138.9h11.6l0,0H271.6z"/>
					<path class="st18" d="M271.6,138.9h11.6l0,0H271.6z"/>
					<path class="st11" d="M284.5,223.8h11.6v67.9h-11.6V223.8z"/>
					<path class="st12" d="M284.5,291.7h11.6V400h-11.6V291.7z"/>
					<path class="st13" d="M284.5,131.5h11.6v16.4h-11.6V131.5z"/>
					<path class="st14" d="M284.5,161h11.6v62.8h-11.6V161z"/>
					<path class="st15" d="M284.5,129h11.6v2.5h-11.6V129z"/>
					<path class="st16" d="M284.5,147.9h11.6V161h-11.6V147.9z"/>
					<path class="st17" d="M284.5,131.5h11.6l0,0H284.5z"/>
					<path class="st18" d="M284.5,131.5h11.6l0,0H284.5z"/>
					<path class="st11" d="M297.4,218.8H309v73.3h-11.6V218.8z"/>
					<path class="st12" d="M297.4,292.1H309V400h-11.6V292.1z"/>
					<path class="st13" d="M297.4,129.6H309v12.2h-11.6V129.6z"/>
					<path class="st14" d="M297.4,155.9H309v62.9h-11.6V155.9z"/>
					<path class="st15" d="M297.4,128.2H309v1.4h-11.6V128.2z"/>
					<path class="st16" d="M297.4,141.8H309v14.1h-11.6V141.8z"/>
					<path class="st17" d="M297.4,129.6H309l0,0H297.4z"/>
					<path class="st18" d="M297.4,129.6H309l0,0H297.4z"/>
					<path class="st11" d="M310.3,226.5h11.6v71.1h-11.6V226.5z"/>
					<path class="st12" d="M310.3,297.6h11.6V400h-11.6V297.6z"/>
					<path class="st13" d="M310.3,136.5h11.6v11.6h-11.6V136.5z"/>
					<path class="st14" d="M310.3,162.8h11.6v63.8h-11.6V162.8z"/>
					<path class="st15" d="M310.3,136.5h11.6l0,0H310.3z"/>
					<path class="st16" d="M310.3,148.1h11.6v14.7h-11.6V148.1z"/>
					<path class="st17" d="M310.3,136.5h11.6l0,0H310.3z"/>
					<path class="st18" d="M310.3,136.5h11.6l0,0H310.3z"/>
					<path class="st11" d="M323.2,227.2h11.6v72h-11.6V227.2z"/>
					<path class="st12" d="M323.2,299.3h11.6V400h-11.6V299.3z"/>
					<path class="st13" d="M323.2,142.1h11.6v9.5h-11.6V142.1z"/>
					<path class="st14" d="M323.2,167.3h11.6v59.9h-11.6V167.3z"/>
					<path class="st15" d="M323.2,140.7h11.6v1.5h-11.6V140.7z"/>
					<path class="st16" d="M323.2,151.6h11.6v15.7h-11.6V151.6z"/>
					<path class="st17" d="M323.2,142.1h11.6l0,0H323.2z"/>
					<path class="st18" d="M323.2,142.1h11.6l0,0H323.2z"/>
					<path class="st11" d="M336.1,229.8h11.6v70.9h-11.6V229.8z"/>
					<path class="st12" d="M336.1,300.7h11.6V400h-11.6V300.7z"/>
					<path class="st13" d="M336.1,146h11.6v6.7h-11.6V146z"/>
					<path class="st14" d="M336.1,169h11.6v60.8h-11.6V169z"/>
					<path class="st15" d="M336.1,143.2h11.6v2.8h-11.6V143.2z"/>
					<path class="st16" d="M336.1,152.7h11.6V169h-11.6V152.7z"/>
					<path class="st17" d="M336.1,146h11.6l0,0H336.1z"/>
					<path class="st18" d="M336.1,146h11.6l0,0H336.1z"/>
					<path class="st11" d="M349,232.5h11.6v71.2H349V232.5z"/>
					<path class="st12" d="M349,303.6h11.6V400H349V303.6z"/>
					<path class="st13" d="M349,145.3h11.6v9.2H349V145.3z"/>
					<path class="st14" d="M349,172.1h11.6v60.3H349V172.1z"/>
					<path class="st15" d="M349,140.1h11.6v5.1H349V140.1z"/>
					<path class="st16" d="M349,154.5h11.6v17.7H349V154.5z"/>
					<path class="st17" d="M349,145.3h11.6l0,0H349z"/>
					<path class="st18" d="M349,145.3h11.6l0,0H349z"/>
					<path class="st11" d="M361.9,239h11.6v70h-11.6V239z"/>
					<path class="st12" d="M361.9,309.1h11.6V400h-11.6V309.1z"/>
					<path class="st13" d="M361.9,153.7h11.6v8.6h-11.6V153.7z"/>
					<path class="st14" d="M361.9,180.8h11.6V239h-11.6V180.8z"/>
					<path class="st15" d="M361.9,143.5h11.6v10.1h-11.6V143.5z"/>
					<path class="st16" d="M361.9,162.3h11.6v18.5h-11.6V162.3z"/>
					<path class="st17" d="M361.9,153.7h11.6l0,0H361.9z"/>
					<path class="st18" d="M361.9,153.7h11.6l0,0H361.9z"/>
					<path class="st11" d="M374.8,242.4h11.6v69h-11.6V242.4z"/>
					<path class="st12" d="M374.8,311.4h11.6V400h-11.6V311.4z"/>
					<path class="st13" d="M374.8,161.5h11.6v6.7h-11.6V161.5z"/>
					<path class="st14" d="M374.8,187.3h11.6v55.1h-11.6V187.3z"/>
					<path class="st15" d="M374.8,151.6h11.6v9.9h-11.6V151.6z"/>
					<path class="st16" d="M374.8,168.2h11.6v19.1h-11.6V168.2z"/>
					<path class="st17" d="M374.8,161.5h11.6l0,0H374.8z"/>
					<path class="st18" d="M374.8,161.5h11.6l0,0H374.8z"/>
					<path class="st11" d="M387.7,260.8h11.6v66.9h-11.6V260.8z"/>
					<path class="st12" d="M387.7,327.7h11.6V400h-11.6V327.7z"/>
					<path class="st13" d="M387.7,167.3h11.6v15.9h-11.6V167.3z"/>
					<path class="st14" d="M387.7,202.8h11.6v57.9h-11.6V202.8z"/>
					<path class="st15" d="M387.7,161.3h11.6v6h-11.6V161.3z"/>
					<path class="st16" d="M387.7,183.2h11.6v19.7h-11.6V183.2z"/>
					<path class="st17" d="M387.7,167.3h11.6l0,0H387.7z"/>
					<path class="st18" d="M387.7,167.3h11.6l0,0H387.7z"/>
				</g>
				<g id="legend">
					<g transform="translate(418,0)">
						<path pointer-events="none" class="st2" d="M0,0h144v118H0V0z"/>
						<g>
							<g>
								<g transform="translate(0,16)">
									<path pointer-events="none" class="st2" d="M0,0L0,0L0,0L0,0z"/>
									<g>
										<g id="source">
											<g id="crude" transform="translate(0,0)">
												<path pointer-events="none" class="st2" d="M-8.9,264.4h144v11h-144V264.4z"/>
												<g>
													<g pointer-events="none">
														<path class="st12" d="M-8.9,265.4h10v10h-10V265.4z"/>
													</g>
													<g pointer-events="none">
														<text transform="matrix(1 0 0 1 6.0732 273.4161)" class="st19"><tspan x="0" y="0" class="st20 st5">Crude, NGL, </tspan><tspan x="0" y="16.8" class="st20 st5">and feedstocks</tspan></text>
													</g>
												</g>
												<path pointer-events="none" class="st7" d="M0,0"/>
											</g>
											<g id="coal" transform="translate(0,13)">
												<path pointer-events="none" class="st2" d="M-8.9,234.4h144v11h-144V234.4z"/>
												<g>
													<g pointer-events="none">
														<path class="st11" d="M-8.9,235.4h10v10h-10V235.4z"/>
													</g>
													<g pointer-events="none">
														<text transform="matrix(1 0 0 1 6.0732 243.3828)" class="st20 st5">Coal, peat, oil shale</text>
													</g>
												</g>
												<path pointer-events="none" class="st7" d="M0,0"/>
											</g>
											<g id="natural_gas" transform="translate(0,26)">
												<path pointer-events="none" class="st2" d="M-8.9-2h144V9h-144V-2z"/>
												<g>
													<g pointer-events="none">
														<path class="st14" d="M-8.9,206.3h10v10h-10V206.3z"/>
													</g>
													<g pointer-events="none">
														<text transform="matrix(1 0 0 1 6.0732 214.2761)" class="st20 st5">Natural gas</text>
													</g>
												</g>
												<path pointer-events="none" class="st7" d="M0,0"/>
											</g>
											<g id="renewables_and_wastes" transform="translate(0,39)">
												<path pointer-events="none" class="st2" d="M-8.9,157.5h144v11.7h-144V157.5z"/>
												<g>
													<g pointer-events="none">
														<path class="st16" d="M-8.9,158.5h10v10.6h-10V158.5z"/>
													</g>
													<g pointer-events="none">
														<text transform="matrix(0.9399 0 0 1 6.0732 167.0293)" class="st19"><tspan x="0" y="0" class="st20 st21">Renewables </tspan><tspan x="0" y="17.9" class="st20 st21">and waste</tspan></text>
													</g>
												</g>
												<path pointer-events="none" class="st7" d="M0,0"/>
											</g>
											<g id="oil_products" transform="translate(0,52)">
												<path pointer-events="none" class="st2" d="M-8.9,127.8h144v11h-144V127.8z"/>
												<g>
													<g pointer-events="none">
														<path class="st13" d="M-8.9,128.8h10v10h-10V128.8z"/>
													</g>
													<g pointer-events="none">
														<text transform="matrix(1 0 0 1 6.0732 136.7853)" class="st20 st5">Oil products</text>
													</g>
												</g>
												<path pointer-events="none" class="st7" d="M0,0"/>
											</g>
											<g id="electricity" transform="translate(0,65)">
												<path pointer-events="none" class="st7" d="M0,0"/>
											</g>
											<g id="heat" transform="translate(0,78)">
												<path pointer-events="none" class="st7" d="M0,0"/>
											</g>
											<g id="nuclear" transform="translate(0,91)">
												<path pointer-events="none" class="st2" d="M-8.9-185.9h144v10.7h-144V-185.9z"/>
												<g>
													<g pointer-events="none">
														<path class="st15" d="M-8.9,74.1h10v9.7h-10V74.1z"/>
													</g>
													<g pointer-events="none">
														<text transform="matrix(1.0328 0 0 1 6.0732 81.8784)" class="st20 st22">Nuclear</text>
													</g>
												</g>
												<path pointer-events="none" class="st7" d="M0,0"/>
											</g>
										</g>
									</g>
									<path pointer-events="none" class="st7" d="M0,0"/>
								</g>
							</g>
							<g pointer-events="none">
								<text transform="matrix(1 0 0 1 -4.3926 164.8827)" class="st6 st10">Source</text>
							</g>
						</g>
						<path pointer-events="none" class="st7" d="M0,0"/>
					</g>
				</g>
				<g>
					<g transform="translate(200,-17)">
						<path pointer-events="none" class="st7" d="M0,0"/>
					</g>
				</g>
			</g>
			<path class="st7" d="M0,0"/>
		</g>
	</g>
	<g>
		<line x1="277.6" y1="116.5" x2="277.6" y2="78"/>
		<g>
			<line class="st23" x1="277.6" y1="109.4" x2="277.6" y2="78"/>
			<g>
				<path d="M277.6,108.6c-2.1-2.1-6.2-3.1-9.1-3.2c3.8,2.9,7.2,6.6,9.1,11.1c1.8-4.5,5.4-8.1,9.1-11.1
					C283.6,105.7,279.9,106.4,277.6,108.6z"/>
			</g>
		</g>
	</g>
	<rect x="259" y="11" class="st2" width="141.5" height="64"/>
	<text transform="matrix(1 0 0 1 259 21.0239)"><tspan x="0" y="0" class="st4 st5">2011</tspan><tspan x="0" y="16.8" class="st4 st5">Great Earthquake &amp; </tspan><tspan x="0" y="33.6" class="st4 st5">Fukushima Nuclear </tspan><tspan x="0" y="50.4" class="st4 st5">Disaster</tspan></text>
</g>
<rect x="2.4" y="26.8" class="st2" width="74" height="18"/>
<text transform="matrix(1 0 0 1 2.3548 36.7944)" class="st4 st5">petajoule</text>
</svg>
