<?xml version="1.0" encoding="utf-8"?>
<!-- Generator: Adobe Illustrator 26.3.1, SVG Export Plug-In . SVG Version: 6.00 Build 0)  -->
<svg version="1.1" xmlns="http://www.w3.org/2000/svg" xmlns:xlink="http://www.w3.org/1999/xlink" x="0px" y="0px"
	 viewBox="0 0 579 540" style="enable-background:new 0 0 579 540;" xml:space="preserve">
<style type="text/css">
	.st0{fill:none;}
	.st1{display:none;}
	.st2{fill:none;stroke:#888888;stroke-miterlimit:10;}
	.st3{font-family:'Helvetica';}
	.st4{font-size:11px;}
	.st5{font-family:'Helvetica-Bold';}
	.st6{font-size:12px;}
	.st7{fill:none;stroke:#DDDDDD;stroke-miterlimit:10;}
	.st8{fill:#E45756;}
	.st9{display:none;fill:#E45756;}
	.st10{fill:#F58518;}
	.st11{display:none;fill:#F58518;}
	.st12{fill:#4C78A8;}
	.st13{display:none;fill:#4C78A8;}
	.st14{fill:#72B7B2;}
	.st15{display:none;fill:#72B7B2;}
	.st16{font-family:'ArialMT';}
	.st17{font-size:18px;}
	.st18{font-size:14px;}
	.st19{font-size:16px;}
	.st20{fill:#565656;}
</style>
<g id="Layer_1">
	<g transform="translate(85,27)">
		<g>
			<g transform="translate(0,0)">
				<path class="st0" d="M-4,15L-4,15L-4,15L-4,15z"/>
				<g>
					<g>
						<g transform="translate(-59,233)">
							<g>
								<g>
									<g transform="translate(-21,0)">
										<path pointer-events="none" class="st1" d="M0,0"/>
									</g>
								</g>
							</g>
							<path class="st1" d="M0,0"/>
						</g>
					</g>
					<g id="ylabels">
						<g transform="translate(-1,0)">
							<path class="st0" d="M-4,15L-4,15v100l0,0V15z"/>
							<g>
								<g>
									<g transform="translate(0.5,0.5)">
										<path pointer-events="none" class="st0" d="M-4,15L-4,15L-4,15L-4,15z"/>
										<g>
											<g pointer-events="none">
												<line class="st2" x1="-4" y1="115" x2="-9" y2="115"/>
												<line class="st2" x1="-4" y1="90" x2="-9" y2="90"/>
												<line class="st2" x1="-4" y1="65" x2="-9" y2="65"/>
												<line class="st2" x1="-4" y1="40" x2="-9" y2="40"/>
												<line class="st2" x1="-4" y1="15" x2="-9" y2="15"/>
											</g>
											<g pointer-events="none">
												<text transform="matrix(1 0 0 1 -16.5615 118)" class="st3 st4">0</text>
												<text transform="matrix(1 0 0 1 -16.5615 93)" class="st3 st4">2</text>
												<text transform="matrix(1 0 0 1 -16.5615 68)" class="st3 st4">4</text>
												<text transform="matrix(1 0 0 1 -16.5615 43)" class="st3 st4">6</text>
												<text transform="matrix(1 0 0 1 -16.5615 18)" class="st3 st4">8</text>
											</g>
											<g pointer-events="none">
												<line class="st2" x1="-4" y1="115" x2="-4" y2="15"/>
											</g>
											<g pointer-events="none">
												<text transform="matrix(1 0 0 1 -50.6201 22.084)" class="st5 st4">days</text>
											</g>
										</g>
										<path pointer-events="none" class="st1" d="M-4,15"/>
									</g>
								</g>
								<g>
									<g transform="translate(-48,50)">
										<path pointer-events="none" class="st1" d="M0,0"/>
									</g>
								</g>
							</g>
							<path class="st1" d="M0,0"/>
						</g>
						<g transform="translate(-1,122)">
							<path class="st0" d="M-4,15L-4,15v100l0,0V15z"/>
							<g>
								<g>
									<g transform="translate(0.5,0.5)">
										<path pointer-events="none" class="st0" d="M-4,15L-4,15L-4,15L-4,15z"/>
										<g>
											<g pointer-events="none">
												<line class="st2" x1="-4" y1="115" x2="-9" y2="115"/>
												<line class="st2" x1="-4" y1="90" x2="-9" y2="90"/>
												<line class="st2" x1="-4" y1="65" x2="-9" y2="65"/>
												<line class="st2" x1="-4" y1="40" x2="-9" y2="40"/>
												<line class="st2" x1="-4" y1="15" x2="-9" y2="15"/>
											</g>
											<g pointer-events="none">
												<text transform="matrix(1 0 0 1 -16.5615 118)" class="st3 st4">0</text>
												<text transform="matrix(1 0 0 1 -16.5615 93)" class="st3 st4">2</text>
												<text transform="matrix(1 0 0 1 -16.5615 68)" class="st3 st4">4</text>
												<text transform="matrix(1 0 0 1 -16.5615 43)" class="st3 st4">6</text>
												<text transform="matrix(1 0 0 1 -16.5615 18)" class="st3 st4">8</text>
											</g>
											<g pointer-events="none">
												<line class="st2" x1="-4" y1="115" x2="-4" y2="15"/>
											</g>
										</g>
										<path pointer-events="none" class="st1" d="M-4,15"/>
									</g>
								</g>
								<g>
									<g transform="translate(-48,50)">
										<path pointer-events="none" class="st1" d="M0,0"/>
									</g>
								</g>
							</g>
							<path class="st1" d="M0,0"/>
						</g>
						<g transform="translate(-1,244)">
							<path class="st0" d="M-4,15L-4,15v100l0,0V15z"/>
							<g>
								<g>
									<g transform="translate(0.5,0.5)">
										<path pointer-events="none" class="st0" d="M-4,15L-4,15L-4,15L-4,15z"/>
										<g>
											<g pointer-events="none">
												<line class="st2" x1="-4" y1="115" x2="-9" y2="115"/>
												<line class="st2" x1="-4" y1="90" x2="-9" y2="90"/>
												<line class="st2" x1="-4" y1="65" x2="-9" y2="65"/>
												<line class="st2" x1="-4" y1="40" x2="-9" y2="40"/>
												<line class="st2" x1="-4" y1="15" x2="-9" y2="15"/>
											</g>
											<g pointer-events="none">
												<text transform="matrix(1 0 0 1 -16.5615 118)" class="st3 st4">0</text>
												<text transform="matrix(1 0 0 1 -16.5615 93)" class="st3 st4">2</text>
												<text transform="matrix(1 0 0 1 -16.5615 68)" class="st3 st4">4</text>
												<text transform="matrix(1 0 0 1 -16.5615 43)" class="st3 st4">6</text>
												<text transform="matrix(1 0 0 1 -16.5615 18)" class="st3 st4">8</text>
											</g>
											<g pointer-events="none">
												<line class="st2" x1="-4" y1="115" x2="-4" y2="15"/>
											</g>
										</g>
										<path pointer-events="none" class="st1" d="M-4,15"/>
									</g>
								</g>
								<g>
									<g transform="translate(-48,50)">
										<path pointer-events="none" class="st1" d="M0,0"/>
									</g>
								</g>
							</g>
							<path d="M-4,15"/>
						</g>
						<g transform="translate(-1,366)">
							<path class="st0" d="M-4,15L-4,15v100l0,0V15z"/>
							<g>
								<g>
									<g transform="translate(0.5,0.5)">
										<path pointer-events="none" class="st0" d="M-4,15L-4,15L-4,15L-4,15z"/>
										<g>
											<g pointer-events="none">
												<line class="st2" x1="-4" y1="115" x2="-9" y2="115"/>
												<line class="st2" x1="-4" y1="90" x2="-9" y2="90"/>
												<line class="st2" x1="-4" y1="65" x2="-9" y2="65"/>
												<line class="st2" x1="-4" y1="40" x2="-9" y2="40"/>
												<line class="st2" x1="-4" y1="15" x2="-9" y2="15"/>
											</g>
											<g pointer-events="none">
												<text transform="matrix(1 0 0 1 -16.5615 118)" class="st3 st4">0</text>
												<text transform="matrix(1 0 0 1 -16.5615 93)" class="st3 st4">2</text>
												<text transform="matrix(1 0 0 1 -16.5615 68)" class="st3 st6">4</text>
												<text transform="matrix(1 0 0 1 -16.5615 43)" class="st3 st6">6</text>
												<text transform="matrix(1 0 0 1 -16.5615 18)" class="st3 st6">8</text>
											</g>
											<g pointer-events="none">
												<line class="st2" x1="-4" y1="115" x2="-4" y2="15"/>
											</g>
										</g>
										<path pointer-events="none" class="st1" d="M-4,15"/>
									</g>
								</g>
								<g>
									<g transform="translate(-48,50)">
										<path pointer-events="none" class="st0" d="M-4,15L-4,15L-4,15L-4,15z"/>
										<path pointer-events="none" class="st1" d="M-4,15"/>
									</g>
								</g>
							</g>
							<path class="st1" d="M-4,15"/>
						</g>
					</g>
					<g id="xlabels">
						<g transform="translate(0,467)">
							<path class="st0" d="M-4,15h400l0,0H-4z"/>
							<g id="texts">
								<g>
									<g transform="translate(0.5,0.5)">
										<path pointer-events="none" class="st0" d="M-4,15L-4,15L-4,15L-4,15z"/>
										<g>
											<g pointer-events="none">
												<line class="st2" x1="12" y1="15" x2="12" y2="20"/>
												<line class="st2" x1="45" y1="15" x2="45" y2="20"/>
												<line class="st2" x1="79" y1="15" x2="79" y2="20"/>
												<line class="st2" x1="112" y1="15" x2="112" y2="20"/>
												<line class="st2" x1="146" y1="15" x2="146" y2="20"/>
												<line class="st2" x1="179" y1="15" x2="179" y2="20"/>
												<line class="st2" x1="212" y1="15" x2="212" y2="20"/>
												<line class="st2" x1="246" y1="15" x2="246" y2="20"/>
												<line class="st2" x1="279" y1="15" x2="279" y2="20"/>
												<line class="st2" x1="312" y1="15" x2="312" y2="20"/>
												<line class="st2" x1="346" y1="15" x2="346" y2="20"/>
												<line class="st2" x1="379" y1="15" x2="379" y2="20"/>
											</g>
											<g pointer-events="none">
												<line class="st2" x1="-4" y1="15" x2="396" y2="15"/>
											</g>
										</g>
										<path pointer-events="none" class="st1" d="M-4,15"/>
									</g>
								</g>
							</g>
							<path class="st1" d="M-4,15"/>
						</g>
					</g>
					<g>
						<g transform="translate(0,0)">
							<path class="st7" d="M-3.5,15.5h400v100h-400V15.5z"/>
							<g>
								<g>
									<path class="st8" d="M-2.3,115h30l0,0H-2.3z"/>
									<path class="st8" d="M31,115h30l0,0H31z"/>
									<path class="st8" d="M64.3,115h30l0,0H64.3z"/>
									<path class="st8" d="M97.7,115h30l0,0H97.7z"/>
									<path class="st8" d="M131,115h30l0,0H131z"/>
									<path class="st8" d="M164.3,90h30v25h-30V90z"/>
									<path class="st8" d="M197.7,102.5h30V115h-30V102.5z"/>
									<path class="st8" d="M231,33.8h30V115h-30V33.8z"/>
									<path class="st8" d="M264.3,108.8h30v6.2h-30V108.8z"/>
									<path class="st8" d="M297.7,115h30l0,0H297.7z"/>
									<path class="st8" d="M331,115h30l0,0H331z"/>
									<path class="st8" d="M364.3,115h30l0,0H364.3z"/>
								</g>
							</g>
							<path class="st9" d="M-4,15"/>
						</g>
						<g transform="translate(0,122)">
							<path class="st7" d="M-3.5,15.5h400v100h-400V15.5z"/>
							<g>
								<g>
									<path class="st10" d="M-2.3,115h30l0,0H-2.3z"/>
									<path class="st10" d="M31,115h30l0,0H31z"/>
									<path class="st10" d="M64.3,115h30l0,0H64.3z"/>
									<path class="st10" d="M97.7,115h30l0,0H97.7z"/>
									<path class="st10" d="M131,115h30l0,0H131z"/>
									<path class="st10" d="M164.3,113.8h30v1.2h-30V113.8z"/>
									<path class="st10" d="M197.7,85h30v30h-30V85z"/>
									<path class="st10" d="M231,53.8h30V115h-30V53.8z"/>
									<path class="st10" d="M264.3,107.5h30v7.5h-30V107.5z"/>
									<path class="st10" d="M297.7,115h30l0,0H297.7z"/>
									<path class="st10" d="M331,115h30l0,0H331z"/>
									<path class="st10" d="M364.3,115h30l0,0H364.3z"/>
								</g>
							</g>
							<path class="st11" d="M-4,15"/>
						</g>
						<g transform="translate(0,244)">
							<path class="st7" d="M-3.5,15.5h400v100h-400V15.5z"/>
							<g>
								<g>
									<path class="st12" d="M-2.3,115h30l0,0H-2.3z"/>
									<path class="st12" d="M31,115h30l0,0H31z"/>
									<path class="st12" d="M64.3,115h30l0,0H64.3z"/>
									<path class="st12" d="M97.7,115h30l0,0H97.7z"/>
									<path class="st12" d="M131,115h30l0,0H131z"/>
									<path class="st12" d="M164.3,113.8h30v1.2h-30V113.8z"/>
									<path class="st12" d="M197.7,97.5h30V115h-30V97.5z"/>
									<path class="st12" d="M231,90h30v25h-30V90z"/>
									<path class="st12" d="M264.3,113.8h30v1.2h-30V113.8z"/>
									<path class="st12" d="M297.7,115h30l0,0H297.7z"/>
									<path class="st12" d="M331,115h30l0,0H331z"/>
									<path class="st12" d="M364.3,115h30l0,0H364.3z"/>
								</g>
							</g>
							<path class="st13" d="M-4,15"/>
						</g>
						<g transform="translate(0,366)">
							<path class="st7" d="M-3.5,15.5h400v100h-400V15.5z"/>
							<g>
								<g>
									<path class="st14" d="M-2.3,115h30l0,0H-2.3z"/>
									<path class="st14" d="M31,115h30l0,0H31z"/>
									<path class="st14" d="M64.3,115h30l0,0H64.3z"/>
									<path class="st14" d="M97.7,115h30l0,0H97.7z"/>
									<path class="st14" d="M131,115h30l0,0H131z"/>
									<path class="st14" d="M164.3,114.9h30v0.1h-30V114.9z"/>
									<path class="st14" d="M197.7,110.8h30v4.2h-30V110.8z"/>
									<path class="st14" d="M231,106.8h30v8.2h-30V106.8z"/>
									<path class="st14" d="M264.3,113.9h30v1.1h-30V113.9z"/>
									<path class="st14" d="M297.7,115h30l0,0H297.7z"/>
									<path class="st14" d="M331,115h30l0,0H331z"/>
									<path class="st14" d="M364.3,115h30l0,0H364.3z"/>
								</g>
							</g>
							<path class="st15" d="M-4,15"/>
						</g>
					</g>
					<g>
						<g transform="translate(419,0)">
							<g>
								<g>
									<g transform="translate(0,16)">
										<g>
											<g>
												<g transform="translate(0,0)">
													<path pointer-events="none" class="st1" d="M0,0"/>
												</g>
												<g transform="translate(0,13)">
													<path pointer-events="none" class="st1" d="M0,0"/>
												</g>
												<g transform="translate(0,26)">
													<path pointer-events="none" class="st1" d="M0,0"/>
												</g>
												<g transform="translate(0,39)">
													<path pointer-events="none" class="st1" d="M0,0"/>
												</g>
											</g>
										</g>
										<path pointer-events="none" class="st1" d="M0,0"/>
									</g>
								</g>
							</g>
							<path pointer-events="none" class="st1" d="M0,0"/>
						</g>
					</g>
					<g id="header">
						<g transform="translate(-80,-22)">
							<path pointer-events="none" class="st0" d="M32,9L32,9L32,9L32,9z"/>
							<g>
								<g pointer-events="none">
									<text transform="matrix(1 0 0 1 32 19)" class="st16 st17">Average Number of Days Max Temperatures Were Above 35°C</text>
								</g>
							</g>
							<path pointer-events="none" class="st1" d="M-4,15"/>
						</g>
					</g>
				</g>
				<path class="st1" d="M0,0"/>
			</g>
		</g>
	</g>
	<rect x="253.3" y="101.5" class="st0" width="24" height="25"/>
	<text transform="matrix(1 0 0 1 253.3476 111.5239)" class="st16 st18">2.0</text>
	<rect x="287.9" y="115" class="st0" width="24" height="25"/>
	<text transform="matrix(1 0 0 1 287.9309 125.0239)" class="st16 st18">1.0</text>
	<rect x="320.5" y="45.2" class="st0" width="24" height="25"/>
	<text transform="matrix(1 0 0 1 320.5473 55.2739)" class="st16 st18">6.5</text>
	<rect x="253.3" y="247.5" class="st0" width="24" height="25"/>
	<text transform="matrix(1 0 0 1 253.3476 257.5239)" class="st16 st18">0.1</text>
	<rect x="287.9" y="218.9" class="st0" width="24" height="25"/>
	<text transform="matrix(1 0 0 1 287.9309 228.8989)" class="st16 st18">2.4</text>
	<rect x="320.5" y="188.3" class="st0" width="24" height="25"/>
	<text transform="matrix(1 0 0 1 320.5475 198.2773)" class="st16 st18">4.9</text>
	<rect x="354.5" y="121.5" class="st0" width="24" height="25"/>
	<text transform="matrix(1 0 0 1 354.4651 131.5005)" class="st16 st18">0.5</text>
	<rect x="354.5" y="242" class="st0" width="24" height="25"/>
	<text transform="matrix(1 0 0 1 354.4656 252.0239)" class="st16 st18">0.6</text>
	<rect x="253.3" y="370" class="st0" width="24" height="25"/>
	<text transform="matrix(1 0 0 1 253.3476 380.0337)" class="st16 st18">0.1</text>
	<rect x="354.5" y="368" class="st0" width="24" height="25"/>
	<text transform="matrix(1 0 0 1 354.4651 378.0337)" class="st16 st18">0.1</text>
	<rect x="354.5" y="490" class="st0" width="24" height="25"/>
	<text transform="matrix(1 0 0 1 354.4651 500.0337)" class="st16 st18">0.1</text>
	<rect x="287.9" y="354" class="st0" width="24" height="25"/>
	<text transform="matrix(1 0 0 1 287.9309 364.0239)" class="st16 st18">1.4</text>
	<rect x="320.5" y="346.5" class="st0" width="24" height="25"/>
	<text transform="matrix(1 0 0 1 320.5473 356.5239)" class="st16 st18">2.0</text>
	<rect x="253.3" y="492.5" class="st0" width="24" height="25"/>
	<text transform="matrix(1 0 0 1 253.3476 502.5571)" class="st16 st18">0.0</text>
	<rect x="287.9" y="487.5" class="st0" width="24" height="25"/>
	<text transform="matrix(1 0 0 1 287.9313 497.5571)" class="st16 st18">0.3</text>
	<rect x="320.5" y="485" class="st0" width="24" height="25"/>
	<text transform="matrix(1 0 0 1 320.5478 495.0151)" class="st16 st18">0.7</text>
	<rect x="95.8" y="52" class="st0" width="141.2" height="21"/>
	<text transform="matrix(1 0 0 1 95.75 63.4561)" class="st16 st19">2020 - present</text>
	<rect x="95.8" y="175" class="st0" width="103" height="21"/>
	<text transform="matrix(1 0 0 1 95.75 186.4463)" class="st16 st19">2010 - 2019</text>
	<rect x="95.8" y="297" class="st0" width="103" height="21"/>
	<text transform="matrix(1 0 0 1 95.75 308.4463)" class="st16 st19">2000 - 2009</text>
	<rect x="95.8" y="419" class="st0" width="103" height="21"/>
	<text transform="matrix(1 0 0 1 95.75 430.4463)" class="st16 st19">1875 - 1999</text>
	<rect x="94.2" y="523" class="st0" width="37" height="25"/>
	<text transform="matrix(1 0 0 1 94.1667 531.5918)" class="st20 st16 st6">Jan</text>
	<rect x="127.5" y="523" class="st0" width="37" height="25"/>
	<text transform="matrix(1 0 0 1 127.5 531.5918)" class="st20 st16 st6">Feb</text>
	<rect x="160.8" y="523" class="st0" width="37" height="25"/>
	<text transform="matrix(1 0 0 1 160.8333 531.5918)" class="st20 st16 st6">Mar</text>
	<rect x="194.2" y="523" class="st0" width="37" height="25"/>
	<text transform="matrix(1 0 0 1 194.1667 531.5918)" class="st20 st16 st6">Apr</text>
	<rect x="227.5" y="523" class="st0" width="37" height="25"/>
	<text transform="matrix(1 0 0 1 227.5 531.5918)" class="st20 st16 st6">May</text>
	<rect x="258.8" y="523" class="st0" width="37" height="25"/>
	<text transform="matrix(1 0 0 1 258.8191 531.5918)" class="st20 st16 st6">Jun</text>
	<rect x="294.2" y="523" class="st0" width="37" height="25"/>
	<text transform="matrix(1 0 0 1 294.1667 531.5918)" class="st20 st16 st6">Jul</text>
	<rect x="327.5" y="523" class="st0" width="37" height="25"/>
	<text transform="matrix(1 0 0 1 327.5 531.5918)" class="st20 st16 st6">Aug</text>
	<rect x="359.9" y="523" class="st0" width="37" height="25"/>
	<text transform="matrix(1 0 0 1 359.9366 531.5918)" class="st20 st16 st6">Sep</text>
	<rect x="394.2" y="523" class="st0" width="37" height="25"/>
	<text transform="matrix(1 0 0 1 394.1667 531.5918)" class="st20 st16 st6">Oct</text>
	<rect x="427.5" y="523" class="st0" width="37" height="25"/>
	<text transform="matrix(1 0 0 1 427.5 531.5918)" class="st20 st16 st6">Nov</text>
	<rect x="460.8" y="523" class="st0" width="37" height="25"/>
	<text transform="matrix(1 0 0 1 460.8333 531.5918)" class="st20 st16 st6">Dec</text>
</g>
<g id="ai2html-settings">
</g>
</svg>
