<?xml version="1.0" encoding="utf-8"?>
<!-- Generator: Adobe Illustrator 26.3.1, SVG Export Plug-In . SVG Version: 6.00 Build 0)  -->
<svg version="1.1" id="Layer_1" xmlns="http://www.w3.org/2000/svg" xmlns:xlink="http://www.w3.org/1999/xlink" x="0px" y="0px"
	 viewBox="0 0 579 540" style="enable-background:new 0 0 579 540;" xml:space="preserve">
<style type="text/css">
	.st0{fill:none;}
	.st1{display:none;}
	.st2{fill:#565656;}
	.st3{fill:none;stroke:#888888;stroke-miterlimit:10;}
	.st4{font-family:'Helvetica';}
	.st5{font-size:11px;}
	.st6{font-family:'Helvetica-Bold';}
	.st7{font-size:12px;}
	.st8{display:none;fill:#565656;}
	.st9{fill:none;stroke:#DDDDDD;stroke-miterlimit:10;}
	.st10{fill:#E45756;}
	.st11{display:none;fill:#E45756;}
	.st12{fill:#F58518;}
	.st13{display:none;fill:#F58518;}
	.st14{fill:#4C78A8;}
	.st15{display:none;fill:#4C78A8;}
	.st16{fill:#72B7B2;}
	.st17{display:none;fill:#72B7B2;}
	.st18{font-family:'ArialMT';}
	.st19{font-size:14px;}
	.st20{font-family:'Arial-BoldMT';}
	.st21{font-size:16px;}
</style>
<g id="Layer_1_00000137134113940925208430000013200139981385519529_">
	<g transform="translate(85,27)">
		<g>
			<g transform="translate(0,0)">
				<path class="st0" d="M-4,15L-4,15L-4,15L-4,15z"/>
				<g>
					<g>
						<g transform="translate(-59,233)">
							<g>
								<g>
									<g transform="translate(-21,0)">
										<path pointer-events="none" class="st1" d="M0,0"/>
									</g>
								</g>
							</g>
							<path class="st1" d="M0,0"/>
						</g>
					</g>
					<g id="ylabels">
						<g id="_x31_st" transform="translate(-1,0)">
							<path class="st2" d="M-4,15L-4,15v100l0,0V15z"/>
							<g>
								<g>
									<g transform="translate(0.5,0.5)">
										<path pointer-events="none" class="st2" d="M-4,15L-4,15L-4,15L-4,15z"/>
										<g>
											<g pointer-events="none">
												<line class="st3" x1="-4" y1="115" x2="-9" y2="115"/>
												<line class="st3" x1="-4" y1="90" x2="-9" y2="90"/>
												<line class="st3" x1="-4" y1="65" x2="-9" y2="65"/>
												<line class="st3" x1="-4" y1="40" x2="-9" y2="40"/>
												<line class="st3" x1="-4" y1="15" x2="-9" y2="15"/>
											</g>
											<g pointer-events="none">
												<text transform="matrix(1 0 0 1 -16.5615 118)" class="st2 st4 st5">0</text>
												<text transform="matrix(1 0 0 1 -16.5615 93)" class="st2 st4 st5">2</text>
												<text transform="matrix(1 0 0 1 -16.5615 68)" class="st2 st4 st5">4</text>
												<text transform="matrix(1 0 0 1 -16.5615 43)" class="st2 st4 st5">6</text>
												<text transform="matrix(1 0 0 1 -16.5615 18)" class="st2 st4 st5">8</text>
											</g>
											<g pointer-events="none">
												<line class="st3" x1="-4" y1="115" x2="-4" y2="15"/>
											</g>
											<g pointer-events="none">
												<text transform="matrix(1 0 0 1 -50.6201 22.084)" class="st2 st6 st5">days</text>
											</g>
										</g>
										<path pointer-events="none" class="st1" d="M-4,15"/>
									</g>
								</g>
								<g>
									<g transform="translate(-48,50)">
										<path pointer-events="none" class="st1" d="M0,0"/>
									</g>
								</g>
							</g>
							<path class="st1" d="M0,0"/>
						</g>
						<g id="_x32_nd" transform="translate(-1,122)">
							<path class="st2" d="M-4,15L-4,15v100l0,0V15z"/>
							<g>
								<g>
									<g transform="translate(0.5,0.5)">
										<path pointer-events="none" class="st2" d="M-4,15L-4,15L-4,15L-4,15z"/>
										<g>
											<g pointer-events="none">
												<line class="st3" x1="-4" y1="115" x2="-9" y2="115"/>
												<line class="st3" x1="-4" y1="90" x2="-9" y2="90"/>
												<line class="st3" x1="-4" y1="65" x2="-9" y2="65"/>
												<line class="st3" x1="-4" y1="40" x2="-9" y2="40"/>
												<line class="st3" x1="-4" y1="15" x2="-9" y2="15"/>
											</g>
											<g pointer-events="none">
												<text transform="matrix(1 0 0 1 -16.5615 118)" class="st2 st4 st5">0</text>
												<text transform="matrix(1 0 0 1 -16.5615 93)" class="st2 st4 st5">2</text>
												<text transform="matrix(1 0 0 1 -16.5615 68)" class="st2 st4 st5">4</text>
												<text transform="matrix(1 0 0 1 -16.5615 43)" class="st2 st4 st5">6</text>
												<text transform="matrix(1 0 0 1 -16.5615 18)" class="st2 st4 st5">8</text>
											</g>
											<g pointer-events="none">
												<line class="st3" x1="-4" y1="115" x2="-4" y2="15"/>
											</g>
										</g>
										<path pointer-events="none" class="st1" d="M-4,15"/>
									</g>
								</g>
								<g>
									<g transform="translate(-48,50)">
										<path pointer-events="none" class="st1" d="M0,0"/>
									</g>
								</g>
							</g>
							<path class="st1" d="M0,0"/>
						</g>
						<g id="_x33_rd" transform="translate(-1,244)">
							<path class="st2" d="M-4,15L-4,15v100l0,0V15z"/>
							<g>
								<g>
									<g transform="translate(0.5,0.5)">
										<path pointer-events="none" class="st2" d="M-4,15L-4,15L-4,15L-4,15z"/>
										<g>
											<g pointer-events="none">
												<line class="st3" x1="-4" y1="115" x2="-9" y2="115"/>
												<line class="st3" x1="-4" y1="90" x2="-9" y2="90"/>
												<line class="st3" x1="-4" y1="65" x2="-9" y2="65"/>
												<line class="st3" x1="-4" y1="40" x2="-9" y2="40"/>
												<line class="st3" x1="-4" y1="15" x2="-9" y2="15"/>
											</g>
											<g pointer-events="none">
												<text transform="matrix(1 0 0 1 -16.5615 118)" class="st2 st4 st5">0</text>
												<text transform="matrix(1 0 0 1 -16.5615 93)" class="st2 st4 st5">2</text>
												<text transform="matrix(1 0 0 1 -16.5615 68)" class="st2 st4 st5">4</text>
												<text transform="matrix(1 0 0 1 -16.5615 43)" class="st2 st4 st5">6</text>
												<text transform="matrix(1 0 0 1 -16.5615 18)" class="st2 st4 st5">8</text>
											</g>
											<g pointer-events="none">
												<line class="st3" x1="-4" y1="115" x2="-4" y2="15"/>
											</g>
										</g>
										<path pointer-events="none" class="st1" d="M-4,15"/>
									</g>
								</g>
								<g>
									<g transform="translate(-48,50)">
										<path pointer-events="none" class="st1" d="M0,0"/>
									</g>
								</g>
							</g>
							<path class="st2" d="M-4,15"/>
						</g>
						<g id="_x34_th" transform="translate(-1,366)">
							<path class="st2" d="M-4,15L-4,15v100l0,0V15z"/>
							<g>
								<g>
									<g transform="translate(0.5,0.5)">
										<path pointer-events="none" class="st2" d="M-4,15L-4,15L-4,15L-4,15z"/>
										<g>
											<g pointer-events="none">
												<line class="st3" x1="-4" y1="115" x2="-9" y2="115"/>
												<line class="st3" x1="-4" y1="90" x2="-9" y2="90"/>
												<line class="st3" x1="-4" y1="65" x2="-9" y2="65"/>
												<line class="st3" x1="-4" y1="40" x2="-9" y2="40"/>
												<line class="st3" x1="-4" y1="15" x2="-9" y2="15"/>
											</g>
											<g pointer-events="none">
												<text transform="matrix(1 0 0 1 -16.5615 118)" class="st2 st4 st5">0</text>
												<text transform="matrix(1 0 0 1 -16.5615 93)" class="st2 st4 st5">2</text>
												<text transform="matrix(1 0 0 1 -16.5615 68)" class="st2 st4 st7">4</text>
												<text transform="matrix(1 0 0 1 -16.5615 43)" class="st2 st4 st7">6</text>
												<text transform="matrix(1 0 0 1 -16.5615 18)" class="st2 st4 st7">8</text>
											</g>
											<g pointer-events="none">
												<line class="st3" x1="-4" y1="115" x2="-4" y2="15"/>
											</g>
										</g>
										<path pointer-events="none" class="st1" d="M-4,15"/>
									</g>
								</g>
								<g>
									<g transform="translate(-48,50)">
										<path pointer-events="none" class="st2" d="M-4,15L-4,15L-4,15L-4,15z"/>
										<path pointer-events="none" class="st8" d="M-4,15"/>
									</g>
								</g>
							</g>
							<path class="st1" d="M-4,15"/>
						</g>
					</g>
					<g id="xlabels">
						<g transform="translate(0,467)">
							<path class="st0" d="M-4,15h400l0,0H-4z"/>
							<g id="texts">
								<g>
									<g transform="translate(0.5,0.5)">
										<path pointer-events="none" class="st0" d="M-4,15L-4,15L-4,15L-4,15z"/>
										<g>
											<g pointer-events="none">
												<line class="st3" x1="12" y1="15" x2="12" y2="20"/>
												<line class="st3" x1="45" y1="15" x2="45" y2="20"/>
												<line class="st3" x1="79" y1="15" x2="79" y2="20"/>
												<line class="st3" x1="112" y1="15" x2="112" y2="20"/>
												<line class="st3" x1="146" y1="15" x2="146" y2="20"/>
												<line class="st3" x1="179" y1="15" x2="179" y2="20"/>
												<line class="st3" x1="212" y1="15" x2="212" y2="20"/>
												<line class="st3" x1="246" y1="15" x2="246" y2="20"/>
												<line class="st3" x1="279" y1="15" x2="279" y2="20"/>
												<line class="st3" x1="312" y1="15" x2="312" y2="20"/>
												<line class="st3" x1="346" y1="15" x2="346" y2="20"/>
												<line class="st3" x1="379" y1="15" x2="379" y2="20"/>
											</g>
											<g pointer-events="none">
												<line class="st3" x1="-4" y1="15" x2="396" y2="15"/>
											</g>
										</g>
										<path pointer-events="none" class="st1" d="M-4,15"/>
									</g>
								</g>
							</g>
							<path class="st1" d="M-4,15"/>
						</g>
					</g>
					<g>
						<g transform="translate(0,0)">
							<path class="st9" d="M-3.5,15.5h400v100h-400V15.5z"/>
							<g>
								<g>
									<path class="st10" d="M-2.3,115h30l0,0H-2.3z"/>
									<path class="st10" d="M31,115h30l0,0H31z"/>
									<path class="st10" d="M64.3,115h30l0,0H64.3z"/>
									<path class="st10" d="M97.7,115h30l0,0H97.7z"/>
									<path class="st10" d="M131,115h30l0,0H131z"/>
									<path class="st10" d="M164.3,90h30v25h-30V90z"/>
									<path class="st10" d="M197.7,102.5h30V115h-30V102.5z"/>
									<path class="st10" d="M231,33.8h30V115h-30V33.8z"/>
									<path class="st10" d="M264.3,108.8h30v6.2h-30V108.8z"/>
									<path class="st10" d="M297.7,115h30l0,0H297.7z"/>
									<path class="st10" d="M331,115h30l0,0H331z"/>
									<path class="st10" d="M364.3,115h30l0,0H364.3z"/>
								</g>
							</g>
							<path class="st11" d="M-4,15"/>
						</g>
						<g transform="translate(0,122)">
							<path class="st9" d="M-3.5,15.5h400v100h-400V15.5z"/>
							<g>
								<g>
									<path class="st12" d="M-2.3,115h30l0,0H-2.3z"/>
									<path class="st12" d="M31,115h30l0,0H31z"/>
									<path class="st12" d="M64.3,115h30l0,0H64.3z"/>
									<path class="st12" d="M97.7,115h30l0,0H97.7z"/>
									<path class="st12" d="M131,115h30l0,0H131z"/>
									<path class="st12" d="M164.3,113.8h30v1.2h-30V113.8z"/>
									<path class="st12" d="M197.7,85h30v30h-30V85z"/>
									<path class="st12" d="M231,53.8h30V115h-30V53.8z"/>
									<path class="st12" d="M264.3,107.5h30v7.5h-30V107.5z"/>
									<path class="st12" d="M297.7,115h30l0,0H297.7z"/>
									<path class="st12" d="M331,115h30l0,0H331z"/>
									<path class="st12" d="M364.3,115h30l0,0H364.3z"/>
								</g>
							</g>
							<path class="st13" d="M-4,15"/>
						</g>
						<g transform="translate(0,244)">
							<path class="st9" d="M-3.5,15.5h400v100h-400V15.5z"/>
							<g>
								<g>
									<path class="st14" d="M-2.3,115h30l0,0H-2.3z"/>
									<path class="st14" d="M31,115h30l0,0H31z"/>
									<path class="st14" d="M64.3,115h30l0,0H64.3z"/>
									<path class="st14" d="M97.7,115h30l0,0H97.7z"/>
									<path class="st14" d="M131,115h30l0,0H131z"/>
									<path class="st14" d="M164.3,113.8h30v1.2h-30V113.8z"/>
									<path class="st14" d="M197.7,97.5h30V115h-30V97.5z"/>
									<path class="st14" d="M231,90h30v25h-30V90z"/>
									<path class="st14" d="M264.3,113.8h30v1.2h-30V113.8z"/>
									<path class="st14" d="M297.7,115h30l0,0H297.7z"/>
									<path class="st14" d="M331,115h30l0,0H331z"/>
									<path class="st14" d="M364.3,115h30l0,0H364.3z"/>
								</g>
							</g>
							<path class="st15" d="M-4,15"/>
						</g>
						<g transform="translate(0,366)">
							<path class="st9" d="M-3.5,15.5h400v100h-400V15.5z"/>
							<g>
								<g>
									<path class="st16" d="M-2.3,115h30l0,0H-2.3z"/>
									<path class="st16" d="M31,115h30l0,0H31z"/>
									<path class="st16" d="M64.3,115h30l0,0H64.3z"/>
									<path class="st16" d="M97.7,115h30l0,0H97.7z"/>
									<path class="st16" d="M131,115h30l0,0H131z"/>
									<path class="st16" d="M164.3,114.9h30v0.1L164.3,114.9L164.3,114.9z"/>
									<path class="st16" d="M197.7,110.8h30v4.2h-30V110.8z"/>
									<path class="st16" d="M231,106.8h30v8.2h-30V106.8z"/>
									<path class="st16" d="M264.3,113.9h30v1.1h-30V113.9z"/>
									<path class="st16" d="M297.7,115h30l0,0H297.7z"/>
									<path class="st16" d="M331,115h30l0,0H331z"/>
									<path class="st16" d="M364.3,115h30l0,0H364.3z"/>
								</g>
							</g>
							<path class="st17" d="M-4,15"/>
						</g>
					</g>
					<g>
						<g transform="translate(419,0)">
							<g>
								<g>
									<g transform="translate(0,16)">
										<g>
											<g>
												<g transform="translate(0,0)">
													<path pointer-events="none" class="st1" d="M0,0"/>
												</g>
												<g transform="translate(0,13)">
													<path pointer-events="none" class="st1" d="M0,0"/>
												</g>
												<g transform="translate(0,26)">
													<path pointer-events="none" class="st1" d="M0,0"/>
												</g>
												<g transform="translate(0,39)">
													<path pointer-events="none" class="st1" d="M0,0"/>
												</g>
											</g>
										</g>
										<path pointer-events="none" class="st1" d="M0,0"/>
									</g>
								</g>
							</g>
							<path pointer-events="none" class="st1" d="M0,0"/>
						</g>
					</g>
					<g id="header">
						<g transform="translate(-80,-22)">
							<path pointer-events="none" class="st0" d="M68,9L68,9L68,9L68,9z"/>
							<path pointer-events="none" class="st1" d="M-4,15"/>
						</g>
					</g>
				</g>
				<path class="st1" d="M0,0"/>
			</g>
		</g>
	</g>
	<rect x="253.3" y="101.5" class="st0" width="24" height="25"/>
	<text transform="matrix(1 0 0 1 253.3476 111.5239)" class="st18 st19">2.0</text>
	<rect x="287.9" y="115" class="st0" width="24" height="25"/>
	<text transform="matrix(1 0 0 1 287.9309 125.0239)" class="st18 st19">1.0</text>
	<rect x="320.5" y="45.2" class="st0" width="24" height="25"/>
	<text transform="matrix(1 0 0 1 320.5473 55.2739)" class="st18 st19">6.5</text>
	<rect x="253.3" y="247.5" class="st0" width="24" height="25"/>
	<text transform="matrix(1 0 0 1 253.3476 257.5239)" class="st18 st19">0.1</text>
	<rect x="287.9" y="218.9" class="st0" width="24" height="25"/>
	<text transform="matrix(1 0 0 1 287.9309 228.8989)" class="st18 st19">2.4</text>
	<rect x="320.5" y="188.3" class="st0" width="24" height="25"/>
	<text transform="matrix(1 0 0 1 320.5475 198.2773)" class="st18 st19">4.9</text>
	<rect x="354.5" y="121.5" class="st0" width="24" height="25"/>
	<text transform="matrix(1 0 0 1 354.4651 131.5005)" class="st18 st19">0.5</text>
	<rect x="354.5" y="242" class="st0" width="24" height="25"/>
	<text transform="matrix(1 0 0 1 354.4656 252.0239)" class="st18 st19">0.6</text>
	<rect x="253.3" y="370" class="st0" width="24" height="25"/>
	<text transform="matrix(1 0 0 1 253.3476 380.0337)" class="st18 st19">0.1</text>
	<rect x="354.5" y="368" class="st0" width="24" height="25"/>
	<text transform="matrix(1 0 0 1 354.4651 378.0337)" class="st18 st19">0.1</text>
	<rect x="354.5" y="490" class="st0" width="24" height="25"/>
	<text transform="matrix(1 0 0 1 354.4651 500.0337)" class="st18 st19">0.1</text>
	<rect x="287.9" y="354" class="st0" width="24" height="25"/>
	<text transform="matrix(1 0 0 1 287.9309 364.0239)" class="st18 st19">1.4</text>
	<rect x="320.5" y="346.5" class="st0" width="24" height="25"/>
	<text transform="matrix(1 0 0 1 320.5473 356.5239)" class="st18 st19">2.0</text>
	<rect x="253.3" y="492.5" class="st0" width="24" height="25"/>
	<text transform="matrix(1 0 0 1 253.3476 502.5571)" class="st18 st19">0.0</text>
	<rect x="287.9" y="487.5" class="st0" width="24" height="25"/>
	<text transform="matrix(1 0 0 1 287.9313 497.5571)" class="st18 st19">0.3</text>
	<rect x="320.5" y="485" class="st0" width="24" height="25"/>
	<text transform="matrix(1 0 0 1 320.5478 495.0151)" class="st18 st19">0.7</text>
	<rect x="95.8" y="52" class="st0" width="141.2" height="21"/>
	<text transform="matrix(1 0 0 1 95.75 63.4561)" class="st2 st20 st21">2020 - present</text>
	<rect x="95.8" y="175" class="st0" width="103" height="21"/>
	<text transform="matrix(1 0 0 1 95.75 186.4463)" class="st2 st20 st21">2010 - 2019</text>
	<rect x="95.8" y="297" class="st0" width="103" height="21"/>
	<text transform="matrix(1 0 0 1 95.75 308.4463)" class="st2 st20 st21">2000 - 2009</text>
	<rect x="95.8" y="419" class="st0" width="103" height="21"/>
	<text transform="matrix(1 0 0 1 95.75 430.4463)" class="st2 st20 st21">1875 - 1999</text>
	<rect x="86.2" y="523" class="st0" width="37" height="25"/>
	<text transform="matrix(1 0 0 1 86.1667 531.5918)" class="st2 st18 st7">Jan</text>
	<rect x="119.5" y="523" class="st0" width="37" height="25"/>
	<text transform="matrix(1 0 0 1 119.5 531.5918)" class="st2 st18 st7">Feb</text>
	<rect x="152.8" y="523" class="st0" width="37" height="25"/>
	<text transform="matrix(1 0 0 1 152.8333 531.5918)" class="st2 st18 st7">Mar</text>
	<rect x="186.2" y="523" class="st0" width="37" height="25"/>
	<text transform="matrix(1 0 0 1 186.1667 531.5918)" class="st2 st18 st7">Apr</text>
	<rect x="219.5" y="523" class="st0" width="37" height="25"/>
	<text transform="matrix(1 0 0 1 219.5 531.5918)" class="st2 st18 st7">May</text>
	<rect x="250.8" y="523" class="st0" width="37" height="25"/>
	<text transform="matrix(1 0 0 1 250.8191 531.5918)" class="st2 st18 st7">Jun</text>
	<rect x="286.2" y="523" class="st0" width="37" height="25"/>
	<text transform="matrix(1 0 0 1 286.1667 531.5918)" class="st2 st18 st7">Jul</text>
	<rect x="319.5" y="523" class="st0" width="37" height="25"/>
	<text transform="matrix(1 0 0 1 319.5 531.5918)" class="st2 st18 st7">Aug</text>
	<rect x="351.9" y="523" class="st0" width="37" height="25"/>
	<text transform="matrix(1 0 0 1 351.9366 531.5918)" class="st2 st18 st7">Sep</text>
	<rect x="386.2" y="523" class="st0" width="37" height="25"/>
	<text transform="matrix(1 0 0 1 386.1667 531.5918)" class="st2 st18 st7">Oct</text>
	<rect x="419.5" y="523" class="st0" width="37" height="25"/>
	<text transform="matrix(1 0 0 1 419.5 531.5918)" class="st2 st18 st7">Nov</text>
	<rect x="452.8" y="523" class="st0" width="37" height="25"/>
	<text transform="matrix(1 0 0 1 452.8333 531.5918)" class="st2 st18 st7">Dec</text>
</g>
<g id="ai2html-settings">
	<rect x="-450" class="st0" width="400" height="418"/>
	<text transform="matrix(1 0 0 1 -450 10.6499)" class="st18" style="font-size:15px;">ai2html-settings</text>
	<text transform="matrix(1 0 0 1 -450 29.6499)" class="st18" style="font-size:15px;">settings_version: 0.111.0</text>
	<text transform="matrix(1 0 0 1 -450 48.6499)" class="st18" style="font-size:15px;">image_format: auto</text>
	<text transform="matrix(1 0 0 1 -450 67.6499)" class="st18" style="font-size:15px;">responsiveness: fixed</text>
	<text transform="matrix(1 0 0 1 -450 86.6499)" class="st18" style="font-size:15px;">output: one-file</text>
	<text transform="matrix(1 0 0 1 -450 105.6499)" class="st18" style="font-size:15px;">html_output_path: /ai2html-output/</text>
	<text transform="matrix(1 0 0 1 -450 124.6499)" class="st18" style="font-size:15px;">html_output_extension: .html</text>
	<text transform="matrix(1 0 0 1 -450 143.6499)" class="st18" style="font-size:15px;">image_output_path: </text>
	<text transform="matrix(1 0 0 1 -450 162.6499)" class="st18" style="font-size:15px;">local_preview_template: </text>
	<text transform="matrix(1 0 0 1 -450 181.6499)" class="st18" style="font-size:15px;">png_number_of_colors: 128</text>
	<text transform="matrix(1 0 0 1 -450 200.6499)" class="st18" style="font-size:15px;">jpg_quality: 60</text>
	<text transform="matrix(1 0 0 1 -450 219.6499)" class="st18" style="font-size:15px;">headline: </text>
	<text transform="matrix(1 0 0 1 -450 238.6499)" class="st18" style="font-size:15px;">leadin: </text>
	<text transform="matrix(1 0 0 1 -450 257.6499)" class="st18" style="font-size:15px;">notes: </text>
	<text transform="matrix(1 0 0 1 -450 276.6499)" class="st18" style="font-size:15px;">sources: </text>
	<text transform="matrix(1 0 0 1 -450 295.6499)" class="st18" style="font-size:15px;">credit: </text>
</g>
</svg>
